<mxfile host="Electron" modified="2024-06-30T01:49:58.505Z" agent="Mozilla/5.0 (Windows NT 10.0; Win64; x64) AppleWebKit/537.36 (KHTML, like Gecko) draw.io/24.1.0 Chrome/120.0.6099.109 Electron/28.1.0 Safari/537.36" etag="xLwb3LCTESojdomHcdn5" version="24.1.0" type="device" pages="3">
  <diagram id="wnnmfJHw3ZaoxQa9WOJB" name="Página-3">
    <mxGraphModel dx="1120" dy="532" grid="1" gridSize="10" guides="1" tooltips="1" connect="1" arrows="1" fold="1" page="1" pageScale="1" pageWidth="827" pageHeight="1169" math="0" shadow="0">
      <root>
        <mxCell id="0" />
        <mxCell id="1" parent="0" />
        <mxCell id="3yCW_O1EWZmLRjjD7TSP-1" value="INCIDENTE" style="swimlane;fontStyle=2;align=center;verticalAlign=top;childLayout=stackLayout;horizontal=1;startSize=26;horizontalStack=0;resizeParent=1;resizeLast=0;collapsible=1;marginBottom=0;rounded=0;shadow=0;strokeWidth=1;" parent="1" vertex="1">
          <mxGeometry x="430" width="180" height="290" as="geometry">
            <mxRectangle x="230" y="140" width="160" height="26" as="alternateBounds" />
          </mxGeometry>
        </mxCell>
        <mxCell id="3yCW_O1EWZmLRjjD7TSP-2" value="Nro_Incidente&#xa;Fecha&#xa;Usuario&#xa;TioProblema&#xa;Prioridad&#xa;Estado&#xa;Solucion&#xa;Anexo&#xa;" style="text;align=left;verticalAlign=top;spacingLeft=4;spacingRight=4;overflow=hidden;rotatable=0;points=[[0,0.5],[1,0.5]];portConstraint=eastwest;" parent="3yCW_O1EWZmLRjjD7TSP-1" vertex="1">
          <mxGeometry y="26" width="180" height="114" as="geometry" />
        </mxCell>
        <mxCell id="3yCW_O1EWZmLRjjD7TSP-3" value="" style="line;html=1;strokeWidth=1;align=left;verticalAlign=middle;spacingTop=-1;spacingLeft=3;spacingRight=3;rotatable=0;labelPosition=right;points=[];portConstraint=eastwest;" parent="3yCW_O1EWZmLRjjD7TSP-1" vertex="1">
          <mxGeometry y="140" width="180" height="10" as="geometry" />
        </mxCell>
        <mxCell id="3yCW_O1EWZmLRjjD7TSP-4" value="Crear_Incidente1();&#xa;Insertar_Incidente();&#xa;Cancelar_Incidente();&#xa;Buscar_Soluciones();&#xa;Buscar_Inc_Usuario_Abiertos();&#xa;Listar_Inc_Area();&#xa;VincularSolucion();&#xa;Resolver_Incidente();&#xa;Modificar_Incidente(); &#xa;" style="text;align=left;verticalAlign=top;spacingLeft=4;spacingRight=4;overflow=hidden;rotatable=0;points=[[0,0.5],[1,0.5]];portConstraint=eastwest;" parent="3yCW_O1EWZmLRjjD7TSP-1" vertex="1">
          <mxGeometry y="150" width="180" height="130" as="geometry" />
        </mxCell>
        <mxCell id="3yCW_O1EWZmLRjjD7TSP-5" value="SOLUCION" style="swimlane;fontStyle=0;align=center;verticalAlign=top;childLayout=stackLayout;horizontal=1;startSize=30;horizontalStack=0;resizeParent=1;resizeLast=0;collapsible=1;marginBottom=0;rounded=0;shadow=0;strokeWidth=1;" parent="1" vertex="1">
          <mxGeometry x="270" y="185" width="130" height="210" as="geometry">
            <mxRectangle x="550" y="140" width="160" height="26" as="alternateBounds" />
          </mxGeometry>
        </mxCell>
        <mxCell id="3yCW_O1EWZmLRjjD7TSP-6" value="Nro_Solucion&#xa;Descripcion_Corta&#xa;Descripcion_Larga&#xa;Error&#xa;Fecha&#xa;Resolutor&#xa;" style="text;align=left;verticalAlign=top;spacingLeft=4;spacingRight=4;overflow=hidden;rotatable=0;points=[[0,0.5],[1,0.5]];portConstraint=eastwest;" parent="3yCW_O1EWZmLRjjD7TSP-5" vertex="1">
          <mxGeometry y="30" width="130" height="104" as="geometry" />
        </mxCell>
        <mxCell id="3yCW_O1EWZmLRjjD7TSP-7" value="" style="line;html=1;strokeWidth=1;align=left;verticalAlign=middle;spacingTop=-1;spacingLeft=3;spacingRight=3;rotatable=0;labelPosition=right;points=[];portConstraint=eastwest;" parent="3yCW_O1EWZmLRjjD7TSP-5" vertex="1">
          <mxGeometry y="134" width="130" height="8" as="geometry" />
        </mxCell>
        <mxCell id="3yCW_O1EWZmLRjjD7TSP-8" value="Obtener_Soluciones();&#xa;Listar_Soluciones();&#xa;Crear_Solucion();&#xa;&#xa;" style="text;align=left;verticalAlign=top;spacingLeft=4;spacingRight=4;overflow=hidden;rotatable=0;points=[[0,0.5],[1,0.5]];portConstraint=eastwest;" parent="3yCW_O1EWZmLRjjD7TSP-5" vertex="1">
          <mxGeometry y="142" width="130" height="68" as="geometry" />
        </mxCell>
        <mxCell id="3yCW_O1EWZmLRjjD7TSP-9" value="RESOLUTOR" style="swimlane;fontStyle=0;align=center;verticalAlign=top;childLayout=stackLayout;horizontal=1;startSize=26;horizontalStack=0;resizeParent=1;resizeLast=0;collapsible=1;marginBottom=0;rounded=0;shadow=0;strokeWidth=1;" parent="1" vertex="1">
          <mxGeometry x="100" y="460" width="96" height="80" as="geometry">
            <mxRectangle x="550" y="140" width="160" height="26" as="alternateBounds" />
          </mxGeometry>
        </mxCell>
        <mxCell id="3yCW_O1EWZmLRjjD7TSP-10" value="Tipo_Resolutor" style="text;align=left;verticalAlign=top;spacingLeft=4;spacingRight=4;overflow=hidden;rotatable=0;points=[[0,0.5],[1,0.5]];portConstraint=eastwest;" parent="3yCW_O1EWZmLRjjD7TSP-9" vertex="1">
          <mxGeometry y="26" width="96" height="26" as="geometry" />
        </mxCell>
        <mxCell id="3yCW_O1EWZmLRjjD7TSP-11" value="" style="line;html=1;strokeWidth=1;align=left;verticalAlign=middle;spacingTop=-1;spacingLeft=3;spacingRight=3;rotatable=0;labelPosition=right;points=[];portConstraint=eastwest;" parent="3yCW_O1EWZmLRjjD7TSP-9" vertex="1">
          <mxGeometry y="52" width="96" height="10" as="geometry" />
        </mxCell>
        <mxCell id="3yCW_O1EWZmLRjjD7TSP-12" value="AREA" style="swimlane;fontStyle=0;align=center;verticalAlign=top;childLayout=stackLayout;horizontal=1;startSize=26;horizontalStack=0;resizeParent=1;resizeLast=0;collapsible=1;marginBottom=0;rounded=0;shadow=0;strokeWidth=1;" parent="1" vertex="1">
          <mxGeometry x="10" y="66" width="90" height="90" as="geometry">
            <mxRectangle x="550" y="140" width="160" height="26" as="alternateBounds" />
          </mxGeometry>
        </mxCell>
        <mxCell id="3yCW_O1EWZmLRjjD7TSP-13" value="Nro_Area&#xa;Nombre_Area&#xa;" style="text;align=left;verticalAlign=top;spacingLeft=4;spacingRight=4;overflow=hidden;rotatable=0;points=[[0,0.5],[1,0.5]];portConstraint=eastwest;" parent="3yCW_O1EWZmLRjjD7TSP-12" vertex="1">
          <mxGeometry y="26" width="90" height="44" as="geometry" />
        </mxCell>
        <mxCell id="3yCW_O1EWZmLRjjD7TSP-14" value="" style="line;html=1;strokeWidth=1;align=left;verticalAlign=middle;spacingTop=-1;spacingLeft=3;spacingRight=3;rotatable=0;labelPosition=right;points=[];portConstraint=eastwest;" parent="3yCW_O1EWZmLRjjD7TSP-12" vertex="1">
          <mxGeometry y="70" width="90" height="8" as="geometry" />
        </mxCell>
        <mxCell id="3yCW_O1EWZmLRjjD7TSP-15" value="ERROR" style="swimlane;fontStyle=0;align=center;verticalAlign=top;childLayout=stackLayout;horizontal=1;startSize=26;horizontalStack=0;resizeParent=1;resizeLast=0;collapsible=1;marginBottom=0;rounded=0;shadow=0;strokeWidth=1;" parent="1" vertex="1">
          <mxGeometry x="660" y="240" width="140" height="184" as="geometry">
            <mxRectangle x="130" y="380" width="160" height="26" as="alternateBounds" />
          </mxGeometry>
        </mxCell>
        <mxCell id="3yCW_O1EWZmLRjjD7TSP-16" value="Nro_Error&#xa;Pantalla&#xa;Aplicacion&#xa;Modulo&#xa;Proceso&#xa;Descripcion_Corta&#xa;Pasos_Reproducir&#xa;" style="text;align=left;verticalAlign=top;spacingLeft=4;spacingRight=4;overflow=hidden;rotatable=0;points=[[0,0.5],[1,0.5]];portConstraint=eastwest;" parent="3yCW_O1EWZmLRjjD7TSP-15" vertex="1">
          <mxGeometry y="26" width="140" height="114" as="geometry" />
        </mxCell>
        <mxCell id="3yCW_O1EWZmLRjjD7TSP-17" value="" style="line;html=1;strokeWidth=1;align=left;verticalAlign=middle;spacingTop=-1;spacingLeft=3;spacingRight=3;rotatable=0;labelPosition=right;points=[];portConstraint=eastwest;" parent="3yCW_O1EWZmLRjjD7TSP-15" vertex="1">
          <mxGeometry y="140" width="140" height="8" as="geometry" />
        </mxCell>
        <mxCell id="3yCW_O1EWZmLRjjD7TSP-19" value="ESTADOS" style="swimlane;fontStyle=0;align=center;verticalAlign=top;childLayout=stackLayout;horizontal=1;startSize=26;horizontalStack=0;resizeParent=1;resizeLast=0;collapsible=1;marginBottom=0;rounded=0;shadow=0;strokeWidth=1;" parent="1" vertex="1">
          <mxGeometry x="650" y="120" width="120" height="90" as="geometry">
            <mxRectangle x="130" y="380" width="160" height="26" as="alternateBounds" />
          </mxGeometry>
        </mxCell>
        <mxCell id="3yCW_O1EWZmLRjjD7TSP-20" value="Nro_Estado&#xa;Nombre_Estado&#xa;" style="text;align=left;verticalAlign=top;spacingLeft=4;spacingRight=4;overflow=hidden;rotatable=0;points=[[0,0.5],[1,0.5]];portConstraint=eastwest;" parent="3yCW_O1EWZmLRjjD7TSP-19" vertex="1">
          <mxGeometry y="26" width="120" height="44" as="geometry" />
        </mxCell>
        <mxCell id="3yCW_O1EWZmLRjjD7TSP-21" value="" style="line;html=1;strokeWidth=1;align=left;verticalAlign=middle;spacingTop=-1;spacingLeft=3;spacingRight=3;rotatable=0;labelPosition=right;points=[];portConstraint=eastwest;" parent="3yCW_O1EWZmLRjjD7TSP-19" vertex="1">
          <mxGeometry y="70" width="120" height="8" as="geometry" />
        </mxCell>
        <mxCell id="3yCW_O1EWZmLRjjD7TSP-22" value="PRIORIDAD" style="swimlane;fontStyle=0;align=center;verticalAlign=top;childLayout=stackLayout;horizontal=1;startSize=26;horizontalStack=0;resizeParent=1;resizeLast=0;collapsible=1;marginBottom=0;rounded=0;shadow=0;strokeWidth=1;" parent="1" vertex="1">
          <mxGeometry x="650" y="10" width="120" height="80" as="geometry">
            <mxRectangle x="130" y="380" width="160" height="26" as="alternateBounds" />
          </mxGeometry>
        </mxCell>
        <mxCell id="3yCW_O1EWZmLRjjD7TSP-23" value="Nro_Prioridad&#xa;Nombre_Prioridad&#xa;" style="text;align=left;verticalAlign=top;spacingLeft=4;spacingRight=4;overflow=hidden;rotatable=0;points=[[0,0.5],[1,0.5]];portConstraint=eastwest;" parent="3yCW_O1EWZmLRjjD7TSP-22" vertex="1">
          <mxGeometry y="26" width="120" height="34" as="geometry" />
        </mxCell>
        <mxCell id="3yCW_O1EWZmLRjjD7TSP-24" value="" style="line;html=1;strokeWidth=1;align=left;verticalAlign=middle;spacingTop=-1;spacingLeft=3;spacingRight=3;rotatable=0;labelPosition=right;points=[];portConstraint=eastwest;" parent="3yCW_O1EWZmLRjjD7TSP-22" vertex="1">
          <mxGeometry y="60" width="120" height="8" as="geometry" />
        </mxCell>
        <mxCell id="3yCW_O1EWZmLRjjD7TSP-25" value="USUARIO" style="swimlane;fontStyle=0;align=center;verticalAlign=top;childLayout=stackLayout;horizontal=1;startSize=26;horizontalStack=0;resizeParent=1;resizeLast=0;collapsible=1;marginBottom=0;rounded=0;shadow=0;strokeWidth=1;" parent="1" vertex="1">
          <mxGeometry x="20" y="185" width="150" height="230" as="geometry">
            <mxRectangle x="550" y="140" width="160" height="26" as="alternateBounds" />
          </mxGeometry>
        </mxCell>
        <mxCell id="3yCW_O1EWZmLRjjD7TSP-26" value="Usuario&#xa;Nombre&#xa;Clave&#xa;Activo&#xa;Mail&#xa;" style="text;align=left;verticalAlign=top;spacingLeft=4;spacingRight=4;overflow=hidden;rotatable=0;points=[[0,0.5],[1,0.5]];portConstraint=eastwest;" parent="3yCW_O1EWZmLRjjD7TSP-25" vertex="1">
          <mxGeometry y="26" width="150" height="84" as="geometry" />
        </mxCell>
        <mxCell id="3yCW_O1EWZmLRjjD7TSP-27" value="" style="line;html=1;strokeWidth=1;align=left;verticalAlign=middle;spacingTop=-1;spacingLeft=3;spacingRight=3;rotatable=0;labelPosition=right;points=[];portConstraint=eastwest;" parent="3yCW_O1EWZmLRjjD7TSP-25" vertex="1">
          <mxGeometry y="110" width="150" height="10" as="geometry" />
        </mxCell>
        <mxCell id="3yCW_O1EWZmLRjjD7TSP-28" value="Solicitar_Datos_loguin()&#xa;Validar_Datos();&#xa;Validar_Usuario();&#xa;Obtener_Tipo_Usuario&#xa;Obtener_Area_Usuario();&#xa;Crear(.);&#xa;Modificar(.); &#xa;" style="text;align=left;verticalAlign=top;spacingLeft=4;spacingRight=4;overflow=hidden;rotatable=0;points=[[0,0.5],[1,0.5]];portConstraint=eastwest;rounded=0;shadow=0;html=0;" parent="3yCW_O1EWZmLRjjD7TSP-25" vertex="1">
          <mxGeometry y="120" width="150" height="100" as="geometry" />
        </mxCell>
        <mxCell id="3yCW_O1EWZmLRjjD7TSP-29" value="1" style="html=1;verticalAlign=bottom;endArrow=block;curved=0;rounded=0;" parent="1" source="3yCW_O1EWZmLRjjD7TSP-1" target="3yCW_O1EWZmLRjjD7TSP-19" edge="1">
          <mxGeometry x="0.7027" y="2" width="80" relative="1" as="geometry">
            <mxPoint x="627.2317073170732" y="114" as="sourcePoint" />
            <mxPoint x="469" y="290" as="targetPoint" />
            <mxPoint as="offset" />
            <Array as="points">
              <mxPoint x="630" y="150" />
            </Array>
          </mxGeometry>
        </mxCell>
        <mxCell id="3yCW_O1EWZmLRjjD7TSP-30" value="1" style="html=1;verticalAlign=bottom;endArrow=block;curved=0;rounded=0;" parent="1" source="3yCW_O1EWZmLRjjD7TSP-1" target="3yCW_O1EWZmLRjjD7TSP-22" edge="1">
          <mxGeometry x="0.3683" y="-5" width="80" relative="1" as="geometry">
            <mxPoint x="389" y="290" as="sourcePoint" />
            <mxPoint x="469" y="290" as="targetPoint" />
            <mxPoint as="offset" />
          </mxGeometry>
        </mxCell>
        <mxCell id="3yCW_O1EWZmLRjjD7TSP-31" value="EMPLEADO" style="swimlane;fontStyle=0;align=center;verticalAlign=top;childLayout=stackLayout;horizontal=1;startSize=26;horizontalStack=0;resizeParent=1;resizeLast=0;collapsible=1;marginBottom=0;rounded=0;shadow=0;strokeWidth=1;" parent="1" vertex="1">
          <mxGeometry x="140" y="10" width="111" height="140" as="geometry">
            <mxRectangle x="550" y="140" width="160" height="26" as="alternateBounds" />
          </mxGeometry>
        </mxCell>
        <mxCell id="3yCW_O1EWZmLRjjD7TSP-32" value="Legajo&#xa;Nombre&#xa;Apellido&#xa;Fecha_ingreso&#xa;Fecha_Egreso&#xa;Area" style="text;align=left;verticalAlign=top;spacingLeft=4;spacingRight=4;overflow=hidden;rotatable=0;points=[[0,0.5],[1,0.5]];portConstraint=eastwest;" parent="3yCW_O1EWZmLRjjD7TSP-31" vertex="1">
          <mxGeometry y="26" width="111" height="94" as="geometry" />
        </mxCell>
        <mxCell id="3yCW_O1EWZmLRjjD7TSP-33" value="" style="line;html=1;strokeWidth=1;align=left;verticalAlign=middle;spacingTop=-1;spacingLeft=3;spacingRight=3;rotatable=0;labelPosition=right;points=[];portConstraint=eastwest;" parent="3yCW_O1EWZmLRjjD7TSP-31" vertex="1">
          <mxGeometry y="120" width="111" height="8" as="geometry" />
        </mxCell>
        <mxCell id="3yCW_O1EWZmLRjjD7TSP-34" value="" style="endArrow=block;endSize=16;endFill=0;html=1;rounded=0;" parent="1" source="3yCW_O1EWZmLRjjD7TSP-25" target="3yCW_O1EWZmLRjjD7TSP-31" edge="1">
          <mxGeometry width="160" relative="1" as="geometry">
            <mxPoint x="349" y="270" as="sourcePoint" />
            <mxPoint x="509" y="270" as="targetPoint" />
          </mxGeometry>
        </mxCell>
        <mxCell id="3yCW_O1EWZmLRjjD7TSP-35" value="1" style="html=1;verticalAlign=bottom;endArrow=block;curved=0;rounded=0;exitX=0.008;exitY=0.894;exitDx=0;exitDy=0;exitPerimeter=0;" parent="1" source="3yCW_O1EWZmLRjjD7TSP-32" target="3yCW_O1EWZmLRjjD7TSP-12" edge="1">
          <mxGeometry width="80" relative="1" as="geometry">
            <mxPoint x="699" y="146" as="sourcePoint" />
            <mxPoint x="769" y="116" as="targetPoint" />
          </mxGeometry>
        </mxCell>
        <mxCell id="3yCW_O1EWZmLRjjD7TSP-37" value="" style="endArrow=block;endSize=16;endFill=0;html=1;rounded=0;" parent="1" source="3yCW_O1EWZmLRjjD7TSP-15" target="3yCW_O1EWZmLRjjD7TSP-1" edge="1">
          <mxGeometry width="160" relative="1" as="geometry">
            <mxPoint x="619" y="350" as="sourcePoint" />
            <mxPoint x="433" y="210" as="targetPoint" />
          </mxGeometry>
        </mxCell>
        <mxCell id="3yCW_O1EWZmLRjjD7TSP-38" value="1" style="html=1;verticalAlign=bottom;endArrow=block;curved=0;rounded=0;exitX=-0.017;exitY=0.731;exitDx=0;exitDy=0;exitPerimeter=0;" parent="1" source="3yCW_O1EWZmLRjjD7TSP-6" target="3yCW_O1EWZmLRjjD7TSP-9" edge="1">
          <mxGeometry x="0.6578" y="13" width="80" relative="1" as="geometry">
            <mxPoint x="689" y="178" as="sourcePoint" />
            <mxPoint x="769" y="199" as="targetPoint" />
            <mxPoint as="offset" />
          </mxGeometry>
        </mxCell>
        <mxCell id="3yCW_O1EWZmLRjjD7TSP-39" value="" style="endArrow=block;endSize=16;endFill=0;html=1;rounded=0;exitX=0;exitY=0.5;exitDx=0;exitDy=0;" parent="1" source="3yCW_O1EWZmLRjjD7TSP-10" edge="1">
          <mxGeometry width="160" relative="1" as="geometry">
            <mxPoint x="247.78571428571422" y="440" as="sourcePoint" />
            <mxPoint x="117" y="410" as="targetPoint" />
            <Array as="points">
              <mxPoint x="60" y="450" />
              <mxPoint x="120" y="440" />
            </Array>
          </mxGeometry>
        </mxCell>
        <mxCell id="3yCW_O1EWZmLRjjD7TSP-53" value="APLICACION" style="swimlane;fontStyle=0;align=center;verticalAlign=top;childLayout=stackLayout;horizontal=1;startSize=26;horizontalStack=0;resizeParent=1;resizeLast=0;collapsible=1;marginBottom=0;rounded=0;shadow=0;strokeWidth=1;" parent="1" vertex="1">
          <mxGeometry x="690" y="470" width="120" height="60" as="geometry">
            <mxRectangle x="130" y="380" width="160" height="26" as="alternateBounds" />
          </mxGeometry>
        </mxCell>
        <mxCell id="3yCW_O1EWZmLRjjD7TSP-54" value="" style="line;html=1;strokeWidth=1;align=left;verticalAlign=middle;spacingTop=-1;spacingLeft=3;spacingRight=3;rotatable=0;labelPosition=right;points=[];portConstraint=eastwest;" parent="3yCW_O1EWZmLRjjD7TSP-53" vertex="1">
          <mxGeometry y="26" width="120" height="8" as="geometry" />
        </mxCell>
        <mxCell id="3yCW_O1EWZmLRjjD7TSP-55" value="MODULO" style="swimlane;fontStyle=0;align=center;verticalAlign=top;childLayout=stackLayout;horizontal=1;startSize=26;horizontalStack=0;resizeParent=1;resizeLast=0;collapsible=1;marginBottom=0;rounded=0;shadow=0;strokeWidth=1;" parent="1" vertex="1">
          <mxGeometry x="827" y="390" width="120" height="60" as="geometry">
            <mxRectangle x="130" y="380" width="160" height="26" as="alternateBounds" />
          </mxGeometry>
        </mxCell>
        <mxCell id="3yCW_O1EWZmLRjjD7TSP-56" value="" style="line;html=1;strokeWidth=1;align=left;verticalAlign=middle;spacingTop=-1;spacingLeft=3;spacingRight=3;rotatable=0;labelPosition=right;points=[];portConstraint=eastwest;" parent="3yCW_O1EWZmLRjjD7TSP-55" vertex="1">
          <mxGeometry y="26" width="120" height="8" as="geometry" />
        </mxCell>
        <mxCell id="3yCW_O1EWZmLRjjD7TSP-57" value="PROCESO" style="swimlane;fontStyle=0;align=center;verticalAlign=top;childLayout=stackLayout;horizontal=1;startSize=26;horizontalStack=0;resizeParent=1;resizeLast=0;collapsible=1;marginBottom=0;rounded=0;shadow=0;strokeWidth=1;" parent="1" vertex="1">
          <mxGeometry x="827" y="300" width="120" height="60" as="geometry">
            <mxRectangle x="130" y="380" width="160" height="26" as="alternateBounds" />
          </mxGeometry>
        </mxCell>
        <mxCell id="3yCW_O1EWZmLRjjD7TSP-58" value="" style="line;html=1;strokeWidth=1;align=left;verticalAlign=middle;spacingTop=-1;spacingLeft=3;spacingRight=3;rotatable=0;labelPosition=right;points=[];portConstraint=eastwest;" parent="3yCW_O1EWZmLRjjD7TSP-57" vertex="1">
          <mxGeometry y="26" width="120" height="8" as="geometry" />
        </mxCell>
        <mxCell id="3yCW_O1EWZmLRjjD7TSP-59" value="PANTALLA" style="swimlane;fontStyle=0;align=center;verticalAlign=top;childLayout=stackLayout;horizontal=1;startSize=26;horizontalStack=0;resizeParent=1;resizeLast=0;collapsible=1;marginBottom=0;rounded=0;shadow=0;strokeWidth=1;" parent="1" vertex="1">
          <mxGeometry x="827" y="205" width="120" height="60" as="geometry">
            <mxRectangle x="130" y="380" width="160" height="26" as="alternateBounds" />
          </mxGeometry>
        </mxCell>
        <mxCell id="3yCW_O1EWZmLRjjD7TSP-60" value="" style="line;html=1;strokeWidth=1;align=left;verticalAlign=middle;spacingTop=-1;spacingLeft=3;spacingRight=3;rotatable=0;labelPosition=right;points=[];portConstraint=eastwest;" parent="3yCW_O1EWZmLRjjD7TSP-59" vertex="1">
          <mxGeometry y="26" width="120" height="8" as="geometry" />
        </mxCell>
        <mxCell id="3yCW_O1EWZmLRjjD7TSP-61" value="" style="endArrow=classic;html=1;rounded=0;" parent="1" source="3yCW_O1EWZmLRjjD7TSP-15" target="3yCW_O1EWZmLRjjD7TSP-59" edge="1">
          <mxGeometry width="50" height="50" relative="1" as="geometry">
            <mxPoint x="740" y="340" as="sourcePoint" />
            <mxPoint x="790" y="290" as="targetPoint" />
          </mxGeometry>
        </mxCell>
        <mxCell id="3yCW_O1EWZmLRjjD7TSP-65" value="1" style="edgeLabel;html=1;align=center;verticalAlign=middle;resizable=0;points=[];" parent="3yCW_O1EWZmLRjjD7TSP-61" vertex="1" connectable="0">
          <mxGeometry x="0.1822" y="-1" relative="1" as="geometry">
            <mxPoint y="-1" as="offset" />
          </mxGeometry>
        </mxCell>
        <mxCell id="3yCW_O1EWZmLRjjD7TSP-63" value="" style="endArrow=classic;html=1;rounded=0;" parent="1" source="3yCW_O1EWZmLRjjD7TSP-15" target="3yCW_O1EWZmLRjjD7TSP-57" edge="1">
          <mxGeometry x="0.0526" y="30" width="50" height="50" relative="1" as="geometry">
            <mxPoint x="790" y="331" as="sourcePoint" />
            <mxPoint x="830" y="319" as="targetPoint" />
            <mxPoint as="offset" />
          </mxGeometry>
        </mxCell>
        <mxCell id="JC_kYVoggTjuDr3V6fPM-17" value="1" style="edgeLabel;html=1;align=center;verticalAlign=middle;resizable=0;points=[];" parent="3yCW_O1EWZmLRjjD7TSP-63" vertex="1" connectable="0">
          <mxGeometry x="0.1946" y="-6" relative="1" as="geometry">
            <mxPoint x="5" y="3" as="offset" />
          </mxGeometry>
        </mxCell>
        <mxCell id="3yCW_O1EWZmLRjjD7TSP-64" value="" style="endArrow=classic;html=1;rounded=0;" parent="1" source="3yCW_O1EWZmLRjjD7TSP-15" target="3yCW_O1EWZmLRjjD7TSP-55" edge="1">
          <mxGeometry width="50" height="50" relative="1" as="geometry">
            <mxPoint x="800" y="341" as="sourcePoint" />
            <mxPoint x="840" y="329" as="targetPoint" />
          </mxGeometry>
        </mxCell>
        <mxCell id="JC_kYVoggTjuDr3V6fPM-15" value="1" style="edgeLabel;html=1;align=center;verticalAlign=middle;resizable=0;points=[];" parent="3yCW_O1EWZmLRjjD7TSP-64" vertex="1" connectable="0">
          <mxGeometry x="-0.1162" y="-5" relative="1" as="geometry">
            <mxPoint x="17" y="9" as="offset" />
          </mxGeometry>
        </mxCell>
        <mxCell id="3yCW_O1EWZmLRjjD7TSP-62" value="1" style="endArrow=classic;html=1;rounded=0;" parent="1" source="3yCW_O1EWZmLRjjD7TSP-15" target="3yCW_O1EWZmLRjjD7TSP-53" edge="1">
          <mxGeometry x="0.7067" y="11" width="50" height="50" relative="1" as="geometry">
            <mxPoint x="700" y="352" as="sourcePoint" />
            <mxPoint x="740" y="340" as="targetPoint" />
            <mxPoint as="offset" />
          </mxGeometry>
        </mxCell>
        <mxCell id="sKF7HAbHJvOb9sRfOv-6-4" value="" style="endArrow=block;endSize=16;endFill=0;html=1;rounded=0;" parent="1" source="JC_kYVoggTjuDr3V6fPM-6" target="3yCW_O1EWZmLRjjD7TSP-5" edge="1">
          <mxGeometry width="160" relative="1" as="geometry">
            <mxPoint x="320.5" y="470" as="sourcePoint" />
            <mxPoint x="344" y="425" as="targetPoint" />
            <Array as="points" />
          </mxGeometry>
        </mxCell>
        <mxCell id="sKF7HAbHJvOb9sRfOv-6-7" value="" style="endArrow=block;endSize=16;endFill=0;html=1;rounded=0;" parent="1" source="JC_kYVoggTjuDr3V6fPM-1" target="3yCW_O1EWZmLRjjD7TSP-8" edge="1">
          <mxGeometry width="160" relative="1" as="geometry">
            <mxPoint x="388.6078431372548" y="470" as="sourcePoint" />
            <mxPoint x="354" y="435" as="targetPoint" />
            <Array as="points" />
          </mxGeometry>
        </mxCell>
        <mxCell id="JC_kYVoggTjuDr3V6fPM-1" value="TIPO_TECNICA" style="swimlane;fontStyle=0;align=center;verticalAlign=top;childLayout=stackLayout;horizontal=1;startSize=26;horizontalStack=0;resizeParent=1;resizeLast=0;collapsible=1;marginBottom=0;rounded=0;shadow=0;strokeWidth=1;" parent="1" vertex="1">
          <mxGeometry x="450" y="424" width="180" height="134" as="geometry">
            <mxRectangle x="550" y="140" width="160" height="26" as="alternateBounds" />
          </mxGeometry>
        </mxCell>
        <mxCell id="JC_kYVoggTjuDr3V6fPM-2" value="Información_Tecnica&#xa;Script&#xa;Herramienta&#xa;Prerequisitos" style="text;align=left;verticalAlign=top;spacingLeft=4;spacingRight=4;overflow=hidden;rotatable=0;points=[[0,0.5],[1,0.5]];portConstraint=eastwest;" parent="JC_kYVoggTjuDr3V6fPM-1" vertex="1">
          <mxGeometry y="26" width="180" height="64" as="geometry" />
        </mxCell>
        <mxCell id="JC_kYVoggTjuDr3V6fPM-3" value="" style="line;html=1;strokeWidth=1;align=left;verticalAlign=middle;spacingTop=-1;spacingLeft=3;spacingRight=3;rotatable=0;labelPosition=right;points=[];portConstraint=eastwest;" parent="JC_kYVoggTjuDr3V6fPM-1" vertex="1">
          <mxGeometry y="90" width="180" height="10" as="geometry" />
        </mxCell>
        <mxCell id="JC_kYVoggTjuDr3V6fPM-4" value="Listar_Soluciones_Tecnicas();" style="text;align=left;verticalAlign=top;spacingLeft=4;spacingRight=4;overflow=hidden;rotatable=0;points=[[0,0.5],[1,0.5]];portConstraint=eastwest;" parent="JC_kYVoggTjuDr3V6fPM-1" vertex="1">
          <mxGeometry y="100" width="180" height="34" as="geometry" />
        </mxCell>
        <mxCell id="JC_kYVoggTjuDr3V6fPM-6" value="TIPO_USUARIO" style="swimlane;fontStyle=0;align=center;verticalAlign=top;childLayout=stackLayout;horizontal=1;startSize=26;horizontalStack=0;resizeParent=1;resizeLast=0;collapsible=1;marginBottom=0;rounded=0;shadow=0;strokeWidth=1;" parent="1" vertex="1">
          <mxGeometry x="233.5" y="440" width="180" height="124" as="geometry">
            <mxRectangle x="550" y="140" width="160" height="26" as="alternateBounds" />
          </mxGeometry>
        </mxCell>
        <mxCell id="JC_kYVoggTjuDr3V6fPM-7" value="Path&#xa;Permisos&#xa;Prerequisitos" style="text;align=left;verticalAlign=top;spacingLeft=4;spacingRight=4;overflow=hidden;rotatable=0;points=[[0,0.5],[1,0.5]];portConstraint=eastwest;" parent="JC_kYVoggTjuDr3V6fPM-6" vertex="1">
          <mxGeometry y="26" width="180" height="54" as="geometry" />
        </mxCell>
        <mxCell id="JC_kYVoggTjuDr3V6fPM-8" value="" style="line;html=1;strokeWidth=1;align=left;verticalAlign=middle;spacingTop=-1;spacingLeft=3;spacingRight=3;rotatable=0;labelPosition=right;points=[];portConstraint=eastwest;" parent="JC_kYVoggTjuDr3V6fPM-6" vertex="1">
          <mxGeometry y="80" width="180" height="10" as="geometry" />
        </mxCell>
        <mxCell id="JC_kYVoggTjuDr3V6fPM-10" value="Listar_Soluciones_Usuario();" style="text;align=left;verticalAlign=top;spacingLeft=4;spacingRight=4;overflow=hidden;rotatable=0;points=[[0,0.5],[1,0.5]];portConstraint=eastwest;" parent="JC_kYVoggTjuDr3V6fPM-6" vertex="1">
          <mxGeometry y="90" width="180" height="34" as="geometry" />
        </mxCell>
        <mxCell id="JC_kYVoggTjuDr3V6fPM-21" value="1" style="html=1;verticalAlign=bottom;endArrow=block;curved=0;rounded=0;exitX=0.006;exitY=0.702;exitDx=0;exitDy=0;exitPerimeter=0;entryX=0.75;entryY=0;entryDx=0;entryDy=0;" parent="1" source="3yCW_O1EWZmLRjjD7TSP-2" target="3yCW_O1EWZmLRjjD7TSP-5" edge="1">
          <mxGeometry x="0.6468" y="-10" width="80" relative="1" as="geometry">
            <mxPoint x="400" y="177.08727272727276" as="sourcePoint" />
            <mxPoint x="360" y="219.99636363636364" as="targetPoint" />
            <mxPoint as="offset" />
          </mxGeometry>
        </mxCell>
        <mxCell id="JC_kYVoggTjuDr3V6fPM-22" value="" style="endArrow=open;html=1;endSize=12;startArrow=diamondThin;startSize=14;startFill=1;edgeStyle=orthogonalEdgeStyle;align=left;verticalAlign=bottom;rounded=0;" parent="1" source="3yCW_O1EWZmLRjjD7TSP-16" target="3yCW_O1EWZmLRjjD7TSP-6" edge="1">
          <mxGeometry x="-1" y="3" relative="1" as="geometry">
            <mxPoint x="580" y="332" as="sourcePoint" />
            <mxPoint x="640" y="300" as="targetPoint" />
            <Array as="points">
              <mxPoint x="580" y="302" />
              <mxPoint x="580" y="302" />
            </Array>
          </mxGeometry>
        </mxCell>
        <mxCell id="JC_kYVoggTjuDr3V6fPM-23" value="1..n" style="edgeLabel;html=1;align=center;verticalAlign=middle;resizable=0;points=[];" parent="JC_kYVoggTjuDr3V6fPM-22" vertex="1" connectable="0">
          <mxGeometry x="0.6899" y="-1" relative="1" as="geometry">
            <mxPoint x="-4" y="-11" as="offset" />
          </mxGeometry>
        </mxCell>
      </root>
    </mxGraphModel>
  </diagram>
  <diagram id="aaZX6XSQjwmliS0fy89a" name="Página-2">
    <mxGraphModel dx="1120" dy="532" grid="1" gridSize="10" guides="1" tooltips="1" connect="1" arrows="1" fold="1" page="1" pageScale="1" pageWidth="827" pageHeight="1169" math="0" shadow="0">
      <root>
        <mxCell id="0" />
        <mxCell id="1" parent="0" />
        <mxCell id="TRROvPcTlUShkeC5-h1H-1" value="INCIDENTE" style="swimlane;fontStyle=2;align=center;verticalAlign=top;childLayout=stackLayout;horizontal=1;startSize=26;horizontalStack=0;resizeParent=1;resizeLast=0;collapsible=1;marginBottom=0;rounded=0;shadow=0;strokeWidth=1;" parent="1" vertex="1">
          <mxGeometry x="430" width="180" height="290" as="geometry">
            <mxRectangle x="230" y="140" width="160" height="26" as="alternateBounds" />
          </mxGeometry>
        </mxCell>
        <mxCell id="TRROvPcTlUShkeC5-h1H-2" value="Nro_Incidente&#xa;Fecha&#xa;Usuario&#xa;TioProblema&#xa;Prioridad&#xa;Estado&#xa;Solucion&#xa;Anexo&#xa;" style="text;align=left;verticalAlign=top;spacingLeft=4;spacingRight=4;overflow=hidden;rotatable=0;points=[[0,0.5],[1,0.5]];portConstraint=eastwest;" parent="TRROvPcTlUShkeC5-h1H-1" vertex="1">
          <mxGeometry y="26" width="180" height="114" as="geometry" />
        </mxCell>
        <mxCell id="TRROvPcTlUShkeC5-h1H-3" value="" style="line;html=1;strokeWidth=1;align=left;verticalAlign=middle;spacingTop=-1;spacingLeft=3;spacingRight=3;rotatable=0;labelPosition=right;points=[];portConstraint=eastwest;" parent="TRROvPcTlUShkeC5-h1H-1" vertex="1">
          <mxGeometry y="140" width="180" height="10" as="geometry" />
        </mxCell>
        <mxCell id="TRROvPcTlUShkeC5-h1H-4" value="Crear_Incidente1();&#xa;Insertar_Incidente();&#xa;Cancelar_Incidente();&#xa;Buscar_Soluciones();&#xa;Buscar_Inc_Usuario_Abiertos();&#xa;Listar_Inc_Area();&#xa;VincularSolucion();&#xa;Resolver_Incidente();&#xa;Modificar_Incidente(); &#xa;" style="text;align=left;verticalAlign=top;spacingLeft=4;spacingRight=4;overflow=hidden;rotatable=0;points=[[0,0.5],[1,0.5]];portConstraint=eastwest;" parent="TRROvPcTlUShkeC5-h1H-1" vertex="1">
          <mxGeometry y="150" width="180" height="130" as="geometry" />
        </mxCell>
        <mxCell id="TRROvPcTlUShkeC5-h1H-5" value="SOLUCION" style="swimlane;fontStyle=0;align=center;verticalAlign=top;childLayout=stackLayout;horizontal=1;startSize=30;horizontalStack=0;resizeParent=1;resizeLast=0;collapsible=1;marginBottom=0;rounded=0;shadow=0;strokeWidth=1;" parent="1" vertex="1">
          <mxGeometry x="270" y="185" width="130" height="210" as="geometry">
            <mxRectangle x="550" y="140" width="160" height="26" as="alternateBounds" />
          </mxGeometry>
        </mxCell>
        <mxCell id="TRROvPcTlUShkeC5-h1H-6" value="Nro_Solucion&#xa;Descripcion_Corta&#xa;Descripcion_Larga&#xa;Error&#xa;Fecha&#xa;Resolutor&#xa;" style="text;align=left;verticalAlign=top;spacingLeft=4;spacingRight=4;overflow=hidden;rotatable=0;points=[[0,0.5],[1,0.5]];portConstraint=eastwest;" parent="TRROvPcTlUShkeC5-h1H-5" vertex="1">
          <mxGeometry y="30" width="130" height="104" as="geometry" />
        </mxCell>
        <mxCell id="TRROvPcTlUShkeC5-h1H-7" value="" style="line;html=1;strokeWidth=1;align=left;verticalAlign=middle;spacingTop=-1;spacingLeft=3;spacingRight=3;rotatable=0;labelPosition=right;points=[];portConstraint=eastwest;" parent="TRROvPcTlUShkeC5-h1H-5" vertex="1">
          <mxGeometry y="134" width="130" height="8" as="geometry" />
        </mxCell>
        <mxCell id="TRROvPcTlUShkeC5-h1H-8" value="Obtener_Soluciones();&#xa;Listar_Soluciones();&#xa;Crear_Solucion();&#xa;&#xa;" style="text;align=left;verticalAlign=top;spacingLeft=4;spacingRight=4;overflow=hidden;rotatable=0;points=[[0,0.5],[1,0.5]];portConstraint=eastwest;" parent="TRROvPcTlUShkeC5-h1H-5" vertex="1">
          <mxGeometry y="142" width="130" height="68" as="geometry" />
        </mxCell>
        <mxCell id="TRROvPcTlUShkeC5-h1H-9" value="RESOLUTOR" style="swimlane;fontStyle=0;align=center;verticalAlign=top;childLayout=stackLayout;horizontal=1;startSize=26;horizontalStack=0;resizeParent=1;resizeLast=0;collapsible=1;marginBottom=0;rounded=0;shadow=0;strokeWidth=1;" parent="1" vertex="1">
          <mxGeometry x="100" y="460" width="96" height="80" as="geometry">
            <mxRectangle x="550" y="140" width="160" height="26" as="alternateBounds" />
          </mxGeometry>
        </mxCell>
        <mxCell id="TRROvPcTlUShkeC5-h1H-10" value="Tipo_Resolutor" style="text;align=left;verticalAlign=top;spacingLeft=4;spacingRight=4;overflow=hidden;rotatable=0;points=[[0,0.5],[1,0.5]];portConstraint=eastwest;" parent="TRROvPcTlUShkeC5-h1H-9" vertex="1">
          <mxGeometry y="26" width="96" height="26" as="geometry" />
        </mxCell>
        <mxCell id="TRROvPcTlUShkeC5-h1H-11" value="" style="line;html=1;strokeWidth=1;align=left;verticalAlign=middle;spacingTop=-1;spacingLeft=3;spacingRight=3;rotatable=0;labelPosition=right;points=[];portConstraint=eastwest;" parent="TRROvPcTlUShkeC5-h1H-9" vertex="1">
          <mxGeometry y="52" width="96" height="10" as="geometry" />
        </mxCell>
        <mxCell id="TRROvPcTlUShkeC5-h1H-12" value="AREA" style="swimlane;fontStyle=0;align=center;verticalAlign=top;childLayout=stackLayout;horizontal=1;startSize=26;horizontalStack=0;resizeParent=1;resizeLast=0;collapsible=1;marginBottom=0;rounded=0;shadow=0;strokeWidth=1;" parent="1" vertex="1">
          <mxGeometry x="10" y="66" width="90" height="90" as="geometry">
            <mxRectangle x="550" y="140" width="160" height="26" as="alternateBounds" />
          </mxGeometry>
        </mxCell>
        <mxCell id="TRROvPcTlUShkeC5-h1H-13" value="Nro_Area&#xa;Nombre_Area&#xa;" style="text;align=left;verticalAlign=top;spacingLeft=4;spacingRight=4;overflow=hidden;rotatable=0;points=[[0,0.5],[1,0.5]];portConstraint=eastwest;" parent="TRROvPcTlUShkeC5-h1H-12" vertex="1">
          <mxGeometry y="26" width="90" height="44" as="geometry" />
        </mxCell>
        <mxCell id="TRROvPcTlUShkeC5-h1H-14" value="" style="line;html=1;strokeWidth=1;align=left;verticalAlign=middle;spacingTop=-1;spacingLeft=3;spacingRight=3;rotatable=0;labelPosition=right;points=[];portConstraint=eastwest;" parent="TRROvPcTlUShkeC5-h1H-12" vertex="1">
          <mxGeometry y="70" width="90" height="8" as="geometry" />
        </mxCell>
        <mxCell id="TRROvPcTlUShkeC5-h1H-15" value="ERROR" style="swimlane;fontStyle=0;align=center;verticalAlign=top;childLayout=stackLayout;horizontal=1;startSize=26;horizontalStack=0;resizeParent=1;resizeLast=0;collapsible=1;marginBottom=0;rounded=0;shadow=0;strokeWidth=1;" parent="1" vertex="1">
          <mxGeometry x="660" y="240" width="140" height="184" as="geometry">
            <mxRectangle x="130" y="380" width="160" height="26" as="alternateBounds" />
          </mxGeometry>
        </mxCell>
        <mxCell id="TRROvPcTlUShkeC5-h1H-16" value="Nro_Error&#xa;Pantalla&#xa;Aplicacion&#xa;Modulo&#xa;Proceso&#xa;Descripcion_Corta&#xa;Pasos_Reproducir&#xa;" style="text;align=left;verticalAlign=top;spacingLeft=4;spacingRight=4;overflow=hidden;rotatable=0;points=[[0,0.5],[1,0.5]];portConstraint=eastwest;" parent="TRROvPcTlUShkeC5-h1H-15" vertex="1">
          <mxGeometry y="26" width="140" height="114" as="geometry" />
        </mxCell>
        <mxCell id="TRROvPcTlUShkeC5-h1H-17" value="" style="line;html=1;strokeWidth=1;align=left;verticalAlign=middle;spacingTop=-1;spacingLeft=3;spacingRight=3;rotatable=0;labelPosition=right;points=[];portConstraint=eastwest;" parent="TRROvPcTlUShkeC5-h1H-15" vertex="1">
          <mxGeometry y="140" width="140" height="8" as="geometry" />
        </mxCell>
        <mxCell id="TRROvPcTlUShkeC5-h1H-18" value="ESTADOS" style="swimlane;fontStyle=0;align=center;verticalAlign=top;childLayout=stackLayout;horizontal=1;startSize=26;horizontalStack=0;resizeParent=1;resizeLast=0;collapsible=1;marginBottom=0;rounded=0;shadow=0;strokeWidth=1;" parent="1" vertex="1">
          <mxGeometry x="650" y="120" width="120" height="90" as="geometry">
            <mxRectangle x="130" y="380" width="160" height="26" as="alternateBounds" />
          </mxGeometry>
        </mxCell>
        <mxCell id="TRROvPcTlUShkeC5-h1H-19" value="Nro_Estado&#xa;Nombre_Estado&#xa;" style="text;align=left;verticalAlign=top;spacingLeft=4;spacingRight=4;overflow=hidden;rotatable=0;points=[[0,0.5],[1,0.5]];portConstraint=eastwest;" parent="TRROvPcTlUShkeC5-h1H-18" vertex="1">
          <mxGeometry y="26" width="120" height="44" as="geometry" />
        </mxCell>
        <mxCell id="TRROvPcTlUShkeC5-h1H-20" value="" style="line;html=1;strokeWidth=1;align=left;verticalAlign=middle;spacingTop=-1;spacingLeft=3;spacingRight=3;rotatable=0;labelPosition=right;points=[];portConstraint=eastwest;" parent="TRROvPcTlUShkeC5-h1H-18" vertex="1">
          <mxGeometry y="70" width="120" height="8" as="geometry" />
        </mxCell>
        <mxCell id="TRROvPcTlUShkeC5-h1H-21" value="PRIORIDAD" style="swimlane;fontStyle=0;align=center;verticalAlign=top;childLayout=stackLayout;horizontal=1;startSize=26;horizontalStack=0;resizeParent=1;resizeLast=0;collapsible=1;marginBottom=0;rounded=0;shadow=0;strokeWidth=1;" parent="1" vertex="1">
          <mxGeometry x="650" y="10" width="120" height="80" as="geometry">
            <mxRectangle x="130" y="380" width="160" height="26" as="alternateBounds" />
          </mxGeometry>
        </mxCell>
        <mxCell id="TRROvPcTlUShkeC5-h1H-22" value="Nro_Prioridad&#xa;Nombre_Prioridad&#xa;" style="text;align=left;verticalAlign=top;spacingLeft=4;spacingRight=4;overflow=hidden;rotatable=0;points=[[0,0.5],[1,0.5]];portConstraint=eastwest;" parent="TRROvPcTlUShkeC5-h1H-21" vertex="1">
          <mxGeometry y="26" width="120" height="34" as="geometry" />
        </mxCell>
        <mxCell id="TRROvPcTlUShkeC5-h1H-23" value="" style="line;html=1;strokeWidth=1;align=left;verticalAlign=middle;spacingTop=-1;spacingLeft=3;spacingRight=3;rotatable=0;labelPosition=right;points=[];portConstraint=eastwest;" parent="TRROvPcTlUShkeC5-h1H-21" vertex="1">
          <mxGeometry y="60" width="120" height="8" as="geometry" />
        </mxCell>
        <mxCell id="TRROvPcTlUShkeC5-h1H-24" value="USUARIO" style="swimlane;fontStyle=0;align=center;verticalAlign=top;childLayout=stackLayout;horizontal=1;startSize=26;horizontalStack=0;resizeParent=1;resizeLast=0;collapsible=1;marginBottom=0;rounded=0;shadow=0;strokeWidth=1;" parent="1" vertex="1">
          <mxGeometry x="20" y="185" width="150" height="230" as="geometry">
            <mxRectangle x="550" y="140" width="160" height="26" as="alternateBounds" />
          </mxGeometry>
        </mxCell>
        <mxCell id="TRROvPcTlUShkeC5-h1H-25" value="Usuario&#xa;Nombre&#xa;Clave&#xa;Activo&#xa;Mail&#xa;" style="text;align=left;verticalAlign=top;spacingLeft=4;spacingRight=4;overflow=hidden;rotatable=0;points=[[0,0.5],[1,0.5]];portConstraint=eastwest;" parent="TRROvPcTlUShkeC5-h1H-24" vertex="1">
          <mxGeometry y="26" width="150" height="84" as="geometry" />
        </mxCell>
        <mxCell id="TRROvPcTlUShkeC5-h1H-26" value="" style="line;html=1;strokeWidth=1;align=left;verticalAlign=middle;spacingTop=-1;spacingLeft=3;spacingRight=3;rotatable=0;labelPosition=right;points=[];portConstraint=eastwest;" parent="TRROvPcTlUShkeC5-h1H-24" vertex="1">
          <mxGeometry y="110" width="150" height="10" as="geometry" />
        </mxCell>
        <mxCell id="TRROvPcTlUShkeC5-h1H-27" value="Solicitar_Datos_loguin()&#xa;Validar_Datos();&#xa;Validar_Usuario();&#xa;Obtener_Tipo_Usuario&#xa;Obtener_Area_Usuario();&#xa;Crear(.);&#xa;Modificar(.); &#xa;" style="text;align=left;verticalAlign=top;spacingLeft=4;spacingRight=4;overflow=hidden;rotatable=0;points=[[0,0.5],[1,0.5]];portConstraint=eastwest;rounded=0;shadow=0;html=0;" parent="TRROvPcTlUShkeC5-h1H-24" vertex="1">
          <mxGeometry y="120" width="150" height="100" as="geometry" />
        </mxCell>
        <mxCell id="TRROvPcTlUShkeC5-h1H-28" value="1" style="html=1;verticalAlign=bottom;endArrow=block;curved=0;rounded=0;" parent="1" source="TRROvPcTlUShkeC5-h1H-1" target="TRROvPcTlUShkeC5-h1H-18" edge="1">
          <mxGeometry x="0.7027" y="2" width="80" relative="1" as="geometry">
            <mxPoint x="627.2317073170732" y="114" as="sourcePoint" />
            <mxPoint x="469" y="290" as="targetPoint" />
            <mxPoint as="offset" />
            <Array as="points">
              <mxPoint x="630" y="150" />
            </Array>
          </mxGeometry>
        </mxCell>
        <mxCell id="TRROvPcTlUShkeC5-h1H-29" value="1" style="html=1;verticalAlign=bottom;endArrow=block;curved=0;rounded=0;" parent="1" source="TRROvPcTlUShkeC5-h1H-1" target="TRROvPcTlUShkeC5-h1H-21" edge="1">
          <mxGeometry x="0.3683" y="-5" width="80" relative="1" as="geometry">
            <mxPoint x="389" y="290" as="sourcePoint" />
            <mxPoint x="469" y="290" as="targetPoint" />
            <mxPoint as="offset" />
          </mxGeometry>
        </mxCell>
        <mxCell id="TRROvPcTlUShkeC5-h1H-30" value="EMPLEADO" style="swimlane;fontStyle=0;align=center;verticalAlign=top;childLayout=stackLayout;horizontal=1;startSize=26;horizontalStack=0;resizeParent=1;resizeLast=0;collapsible=1;marginBottom=0;rounded=0;shadow=0;strokeWidth=1;" parent="1" vertex="1">
          <mxGeometry x="140" y="10" width="111" height="140" as="geometry">
            <mxRectangle x="550" y="140" width="160" height="26" as="alternateBounds" />
          </mxGeometry>
        </mxCell>
        <mxCell id="TRROvPcTlUShkeC5-h1H-31" value="Legajo&#xa;Nombre&#xa;Apellido&#xa;Fecha_ingreso&#xa;Fecha_Egreso&#xa;Area" style="text;align=left;verticalAlign=top;spacingLeft=4;spacingRight=4;overflow=hidden;rotatable=0;points=[[0,0.5],[1,0.5]];portConstraint=eastwest;" parent="TRROvPcTlUShkeC5-h1H-30" vertex="1">
          <mxGeometry y="26" width="111" height="94" as="geometry" />
        </mxCell>
        <mxCell id="TRROvPcTlUShkeC5-h1H-32" value="" style="line;html=1;strokeWidth=1;align=left;verticalAlign=middle;spacingTop=-1;spacingLeft=3;spacingRight=3;rotatable=0;labelPosition=right;points=[];portConstraint=eastwest;" parent="TRROvPcTlUShkeC5-h1H-30" vertex="1">
          <mxGeometry y="120" width="111" height="8" as="geometry" />
        </mxCell>
        <mxCell id="TRROvPcTlUShkeC5-h1H-33" value="" style="endArrow=block;endSize=16;endFill=0;html=1;rounded=0;" parent="1" source="TRROvPcTlUShkeC5-h1H-24" target="TRROvPcTlUShkeC5-h1H-30" edge="1">
          <mxGeometry width="160" relative="1" as="geometry">
            <mxPoint x="349" y="270" as="sourcePoint" />
            <mxPoint x="509" y="270" as="targetPoint" />
          </mxGeometry>
        </mxCell>
        <mxCell id="TRROvPcTlUShkeC5-h1H-34" value="1" style="html=1;verticalAlign=bottom;endArrow=block;curved=0;rounded=0;exitX=0.008;exitY=0.894;exitDx=0;exitDy=0;exitPerimeter=0;" parent="1" source="TRROvPcTlUShkeC5-h1H-31" target="TRROvPcTlUShkeC5-h1H-12" edge="1">
          <mxGeometry width="80" relative="1" as="geometry">
            <mxPoint x="699" y="146" as="sourcePoint" />
            <mxPoint x="769" y="116" as="targetPoint" />
          </mxGeometry>
        </mxCell>
        <mxCell id="TRROvPcTlUShkeC5-h1H-35" value="" style="endArrow=block;endSize=16;endFill=0;html=1;rounded=0;" parent="1" source="TRROvPcTlUShkeC5-h1H-15" target="TRROvPcTlUShkeC5-h1H-1" edge="1">
          <mxGeometry width="160" relative="1" as="geometry">
            <mxPoint x="619" y="350" as="sourcePoint" />
            <mxPoint x="433" y="210" as="targetPoint" />
          </mxGeometry>
        </mxCell>
        <mxCell id="TRROvPcTlUShkeC5-h1H-36" value="1" style="html=1;verticalAlign=bottom;endArrow=block;curved=0;rounded=0;exitX=-0.017;exitY=0.731;exitDx=0;exitDy=0;exitPerimeter=0;" parent="1" source="TRROvPcTlUShkeC5-h1H-6" target="TRROvPcTlUShkeC5-h1H-9" edge="1">
          <mxGeometry x="0.6578" y="13" width="80" relative="1" as="geometry">
            <mxPoint x="689" y="178" as="sourcePoint" />
            <mxPoint x="769" y="199" as="targetPoint" />
            <mxPoint as="offset" />
          </mxGeometry>
        </mxCell>
        <mxCell id="TRROvPcTlUShkeC5-h1H-37" value="" style="endArrow=block;endSize=16;endFill=0;html=1;rounded=0;exitX=0;exitY=0.5;exitDx=0;exitDy=0;" parent="1" source="TRROvPcTlUShkeC5-h1H-10" edge="1">
          <mxGeometry width="160" relative="1" as="geometry">
            <mxPoint x="247.78571428571422" y="440" as="sourcePoint" />
            <mxPoint x="117" y="410" as="targetPoint" />
            <Array as="points">
              <mxPoint x="60" y="450" />
              <mxPoint x="120" y="440" />
            </Array>
          </mxGeometry>
        </mxCell>
        <mxCell id="TRROvPcTlUShkeC5-h1H-38" value="APLICACION" style="swimlane;fontStyle=0;align=center;verticalAlign=top;childLayout=stackLayout;horizontal=1;startSize=26;horizontalStack=0;resizeParent=1;resizeLast=0;collapsible=1;marginBottom=0;rounded=0;shadow=0;strokeWidth=1;" parent="1" vertex="1">
          <mxGeometry x="690" y="470" width="120" height="60" as="geometry">
            <mxRectangle x="130" y="380" width="160" height="26" as="alternateBounds" />
          </mxGeometry>
        </mxCell>
        <mxCell id="TRROvPcTlUShkeC5-h1H-39" value="" style="line;html=1;strokeWidth=1;align=left;verticalAlign=middle;spacingTop=-1;spacingLeft=3;spacingRight=3;rotatable=0;labelPosition=right;points=[];portConstraint=eastwest;" parent="TRROvPcTlUShkeC5-h1H-38" vertex="1">
          <mxGeometry y="26" width="120" height="8" as="geometry" />
        </mxCell>
        <mxCell id="TRROvPcTlUShkeC5-h1H-40" value="MODULO" style="swimlane;fontStyle=0;align=center;verticalAlign=top;childLayout=stackLayout;horizontal=1;startSize=26;horizontalStack=0;resizeParent=1;resizeLast=0;collapsible=1;marginBottom=0;rounded=0;shadow=0;strokeWidth=1;" parent="1" vertex="1">
          <mxGeometry x="827" y="390" width="120" height="60" as="geometry">
            <mxRectangle x="130" y="380" width="160" height="26" as="alternateBounds" />
          </mxGeometry>
        </mxCell>
        <mxCell id="TRROvPcTlUShkeC5-h1H-41" value="" style="line;html=1;strokeWidth=1;align=left;verticalAlign=middle;spacingTop=-1;spacingLeft=3;spacingRight=3;rotatable=0;labelPosition=right;points=[];portConstraint=eastwest;" parent="TRROvPcTlUShkeC5-h1H-40" vertex="1">
          <mxGeometry y="26" width="120" height="8" as="geometry" />
        </mxCell>
        <mxCell id="TRROvPcTlUShkeC5-h1H-42" value="PROCESO" style="swimlane;fontStyle=0;align=center;verticalAlign=top;childLayout=stackLayout;horizontal=1;startSize=26;horizontalStack=0;resizeParent=1;resizeLast=0;collapsible=1;marginBottom=0;rounded=0;shadow=0;strokeWidth=1;" parent="1" vertex="1">
          <mxGeometry x="827" y="300" width="120" height="60" as="geometry">
            <mxRectangle x="130" y="380" width="160" height="26" as="alternateBounds" />
          </mxGeometry>
        </mxCell>
        <mxCell id="TRROvPcTlUShkeC5-h1H-43" value="" style="line;html=1;strokeWidth=1;align=left;verticalAlign=middle;spacingTop=-1;spacingLeft=3;spacingRight=3;rotatable=0;labelPosition=right;points=[];portConstraint=eastwest;" parent="TRROvPcTlUShkeC5-h1H-42" vertex="1">
          <mxGeometry y="26" width="120" height="8" as="geometry" />
        </mxCell>
        <mxCell id="TRROvPcTlUShkeC5-h1H-44" value="PANTALLA" style="swimlane;fontStyle=0;align=center;verticalAlign=top;childLayout=stackLayout;horizontal=1;startSize=26;horizontalStack=0;resizeParent=1;resizeLast=0;collapsible=1;marginBottom=0;rounded=0;shadow=0;strokeWidth=1;" parent="1" vertex="1">
          <mxGeometry x="827" y="205" width="120" height="60" as="geometry">
            <mxRectangle x="130" y="380" width="160" height="26" as="alternateBounds" />
          </mxGeometry>
        </mxCell>
        <mxCell id="TRROvPcTlUShkeC5-h1H-45" value="" style="line;html=1;strokeWidth=1;align=left;verticalAlign=middle;spacingTop=-1;spacingLeft=3;spacingRight=3;rotatable=0;labelPosition=right;points=[];portConstraint=eastwest;" parent="TRROvPcTlUShkeC5-h1H-44" vertex="1">
          <mxGeometry y="26" width="120" height="8" as="geometry" />
        </mxCell>
        <mxCell id="TRROvPcTlUShkeC5-h1H-46" value="" style="endArrow=classic;html=1;rounded=0;" parent="1" source="TRROvPcTlUShkeC5-h1H-15" target="TRROvPcTlUShkeC5-h1H-44" edge="1">
          <mxGeometry width="50" height="50" relative="1" as="geometry">
            <mxPoint x="740" y="340" as="sourcePoint" />
            <mxPoint x="790" y="290" as="targetPoint" />
          </mxGeometry>
        </mxCell>
        <mxCell id="TRROvPcTlUShkeC5-h1H-47" value="1" style="edgeLabel;html=1;align=center;verticalAlign=middle;resizable=0;points=[];" parent="TRROvPcTlUShkeC5-h1H-46" vertex="1" connectable="0">
          <mxGeometry x="0.1822" y="-1" relative="1" as="geometry">
            <mxPoint y="-1" as="offset" />
          </mxGeometry>
        </mxCell>
        <mxCell id="TRROvPcTlUShkeC5-h1H-48" value="" style="endArrow=classic;html=1;rounded=0;" parent="1" source="TRROvPcTlUShkeC5-h1H-15" target="TRROvPcTlUShkeC5-h1H-42" edge="1">
          <mxGeometry x="0.0526" y="30" width="50" height="50" relative="1" as="geometry">
            <mxPoint x="790" y="331" as="sourcePoint" />
            <mxPoint x="830" y="319" as="targetPoint" />
            <mxPoint as="offset" />
          </mxGeometry>
        </mxCell>
        <mxCell id="TRROvPcTlUShkeC5-h1H-49" value="1" style="edgeLabel;html=1;align=center;verticalAlign=middle;resizable=0;points=[];" parent="TRROvPcTlUShkeC5-h1H-48" vertex="1" connectable="0">
          <mxGeometry x="0.1946" y="-6" relative="1" as="geometry">
            <mxPoint x="5" y="3" as="offset" />
          </mxGeometry>
        </mxCell>
        <mxCell id="TRROvPcTlUShkeC5-h1H-50" value="" style="endArrow=classic;html=1;rounded=0;" parent="1" source="TRROvPcTlUShkeC5-h1H-15" target="TRROvPcTlUShkeC5-h1H-40" edge="1">
          <mxGeometry width="50" height="50" relative="1" as="geometry">
            <mxPoint x="800" y="341" as="sourcePoint" />
            <mxPoint x="840" y="329" as="targetPoint" />
          </mxGeometry>
        </mxCell>
        <mxCell id="TRROvPcTlUShkeC5-h1H-51" value="1" style="edgeLabel;html=1;align=center;verticalAlign=middle;resizable=0;points=[];" parent="TRROvPcTlUShkeC5-h1H-50" vertex="1" connectable="0">
          <mxGeometry x="-0.1162" y="-5" relative="1" as="geometry">
            <mxPoint x="17" y="9" as="offset" />
          </mxGeometry>
        </mxCell>
        <mxCell id="TRROvPcTlUShkeC5-h1H-52" value="1" style="endArrow=classic;html=1;rounded=0;" parent="1" source="TRROvPcTlUShkeC5-h1H-15" target="TRROvPcTlUShkeC5-h1H-38" edge="1">
          <mxGeometry x="0.7067" y="11" width="50" height="50" relative="1" as="geometry">
            <mxPoint x="700" y="352" as="sourcePoint" />
            <mxPoint x="740" y="340" as="targetPoint" />
            <mxPoint as="offset" />
          </mxGeometry>
        </mxCell>
        <mxCell id="TRROvPcTlUShkeC5-h1H-53" value="" style="endArrow=block;endSize=16;endFill=0;html=1;rounded=0;" parent="1" source="TRROvPcTlUShkeC5-h1H-59" target="TRROvPcTlUShkeC5-h1H-5" edge="1">
          <mxGeometry width="160" relative="1" as="geometry">
            <mxPoint x="320.5" y="470" as="sourcePoint" />
            <mxPoint x="344" y="425" as="targetPoint" />
            <Array as="points" />
          </mxGeometry>
        </mxCell>
        <mxCell id="TRROvPcTlUShkeC5-h1H-54" value="" style="endArrow=block;endSize=16;endFill=0;html=1;rounded=0;" parent="1" source="TRROvPcTlUShkeC5-h1H-55" target="TRROvPcTlUShkeC5-h1H-8" edge="1">
          <mxGeometry width="160" relative="1" as="geometry">
            <mxPoint x="388.6078431372548" y="470" as="sourcePoint" />
            <mxPoint x="354" y="435" as="targetPoint" />
            <Array as="points" />
          </mxGeometry>
        </mxCell>
        <mxCell id="TRROvPcTlUShkeC5-h1H-55" value="TIPO_TECNICA" style="swimlane;fontStyle=0;align=center;verticalAlign=top;childLayout=stackLayout;horizontal=1;startSize=26;horizontalStack=0;resizeParent=1;resizeLast=0;collapsible=1;marginBottom=0;rounded=0;shadow=0;strokeWidth=1;" parent="1" vertex="1">
          <mxGeometry x="460" y="390" width="180" height="134" as="geometry">
            <mxRectangle x="550" y="140" width="160" height="26" as="alternateBounds" />
          </mxGeometry>
        </mxCell>
        <mxCell id="TRROvPcTlUShkeC5-h1H-56" value="Información_Tecnica&#xa;Script&#xa;Herramienta&#xa;Prerequisitos" style="text;align=left;verticalAlign=top;spacingLeft=4;spacingRight=4;overflow=hidden;rotatable=0;points=[[0,0.5],[1,0.5]];portConstraint=eastwest;" parent="TRROvPcTlUShkeC5-h1H-55" vertex="1">
          <mxGeometry y="26" width="180" height="64" as="geometry" />
        </mxCell>
        <mxCell id="TRROvPcTlUShkeC5-h1H-57" value="" style="line;html=1;strokeWidth=1;align=left;verticalAlign=middle;spacingTop=-1;spacingLeft=3;spacingRight=3;rotatable=0;labelPosition=right;points=[];portConstraint=eastwest;" parent="TRROvPcTlUShkeC5-h1H-55" vertex="1">
          <mxGeometry y="90" width="180" height="10" as="geometry" />
        </mxCell>
        <mxCell id="TRROvPcTlUShkeC5-h1H-58" value="Listar_Soluciones_Tecnicas();" style="text;align=left;verticalAlign=top;spacingLeft=4;spacingRight=4;overflow=hidden;rotatable=0;points=[[0,0.5],[1,0.5]];portConstraint=eastwest;" parent="TRROvPcTlUShkeC5-h1H-55" vertex="1">
          <mxGeometry y="100" width="180" height="34" as="geometry" />
        </mxCell>
        <mxCell id="TRROvPcTlUShkeC5-h1H-59" value="TIPO_USUARIO" style="swimlane;fontStyle=0;align=center;verticalAlign=top;childLayout=stackLayout;horizontal=1;startSize=26;horizontalStack=0;resizeParent=1;resizeLast=0;collapsible=1;marginBottom=0;rounded=0;shadow=0;strokeWidth=1;" parent="1" vertex="1">
          <mxGeometry x="233.5" y="424" width="180" height="124" as="geometry">
            <mxRectangle x="550" y="140" width="160" height="26" as="alternateBounds" />
          </mxGeometry>
        </mxCell>
        <mxCell id="TRROvPcTlUShkeC5-h1H-60" value="Path&#xa;Permisos&#xa;Prerequisitos" style="text;align=left;verticalAlign=top;spacingLeft=4;spacingRight=4;overflow=hidden;rotatable=0;points=[[0,0.5],[1,0.5]];portConstraint=eastwest;" parent="TRROvPcTlUShkeC5-h1H-59" vertex="1">
          <mxGeometry y="26" width="180" height="54" as="geometry" />
        </mxCell>
        <mxCell id="TRROvPcTlUShkeC5-h1H-61" value="" style="line;html=1;strokeWidth=1;align=left;verticalAlign=middle;spacingTop=-1;spacingLeft=3;spacingRight=3;rotatable=0;labelPosition=right;points=[];portConstraint=eastwest;" parent="TRROvPcTlUShkeC5-h1H-59" vertex="1">
          <mxGeometry y="80" width="180" height="10" as="geometry" />
        </mxCell>
        <mxCell id="TRROvPcTlUShkeC5-h1H-62" value="Listar_Soluciones_Usuario();" style="text;align=left;verticalAlign=top;spacingLeft=4;spacingRight=4;overflow=hidden;rotatable=0;points=[[0,0.5],[1,0.5]];portConstraint=eastwest;" parent="TRROvPcTlUShkeC5-h1H-59" vertex="1">
          <mxGeometry y="90" width="180" height="34" as="geometry" />
        </mxCell>
        <mxCell id="TRROvPcTlUShkeC5-h1H-63" value="1" style="html=1;verticalAlign=bottom;endArrow=block;curved=0;rounded=0;exitX=0.006;exitY=0.702;exitDx=0;exitDy=0;exitPerimeter=0;entryX=0.75;entryY=0;entryDx=0;entryDy=0;" parent="1" source="TRROvPcTlUShkeC5-h1H-2" target="TRROvPcTlUShkeC5-h1H-5" edge="1">
          <mxGeometry x="0.6468" y="-10" width="80" relative="1" as="geometry">
            <mxPoint x="400" y="177.08727272727276" as="sourcePoint" />
            <mxPoint x="360" y="219.99636363636364" as="targetPoint" />
            <mxPoint as="offset" />
          </mxGeometry>
        </mxCell>
        <mxCell id="TRROvPcTlUShkeC5-h1H-64" value="" style="endArrow=open;html=1;endSize=12;startArrow=diamondThin;startSize=14;startFill=1;edgeStyle=orthogonalEdgeStyle;align=left;verticalAlign=bottom;rounded=0;" parent="1" source="TRROvPcTlUShkeC5-h1H-16" target="TRROvPcTlUShkeC5-h1H-6" edge="1">
          <mxGeometry x="-1" y="3" relative="1" as="geometry">
            <mxPoint x="580" y="332" as="sourcePoint" />
            <mxPoint x="640" y="300" as="targetPoint" />
            <Array as="points">
              <mxPoint x="580" y="302" />
              <mxPoint x="580" y="302" />
            </Array>
          </mxGeometry>
        </mxCell>
        <mxCell id="TRROvPcTlUShkeC5-h1H-65" value="1..n" style="edgeLabel;html=1;align=center;verticalAlign=middle;resizable=0;points=[];" parent="TRROvPcTlUShkeC5-h1H-64" vertex="1" connectable="0">
          <mxGeometry x="0.6899" y="-1" relative="1" as="geometry">
            <mxPoint x="-4" y="-11" as="offset" />
          </mxGeometry>
        </mxCell>
      </root>
    </mxGraphModel>
  </diagram>
  <diagram id="wkn9nBlva4leKSh75Zsp" name="Página-4-new">
    <mxGraphModel dx="1493" dy="709" grid="1" gridSize="10" guides="1" tooltips="1" connect="1" arrows="1" fold="1" page="1" pageScale="1" pageWidth="827" pageHeight="1169" math="0" shadow="0">
      <root>
        <mxCell id="0" />
        <mxCell id="1" parent="0" />
        <mxCell id="uX3BRisPS_wJf3MowtyH-1" value="INCIDENTE" style="swimlane;fontStyle=2;align=center;verticalAlign=top;childLayout=stackLayout;horizontal=1;startSize=26;horizontalStack=0;resizeParent=1;resizeLast=0;collapsible=1;marginBottom=0;rounded=0;shadow=0;strokeWidth=1;" vertex="1" parent="1">
          <mxGeometry x="440" y="360" width="180" height="180" as="geometry">
            <mxRectangle x="230" y="140" width="160" height="26" as="alternateBounds" />
          </mxGeometry>
        </mxCell>
        <mxCell id="uX3BRisPS_wJf3MowtyH-2" value="Nro_Incidente&#xa;Fecha&#xa;Usuario&#xa;TioProblema&#xa;Prioridad&#xa;Estado&#xa;Solucion&#xa;Anexo&#xa;" style="text;align=left;verticalAlign=top;spacingLeft=4;spacingRight=4;overflow=hidden;rotatable=0;points=[[0,0.5],[1,0.5]];portConstraint=eastwest;" vertex="1" parent="uX3BRisPS_wJf3MowtyH-1">
          <mxGeometry y="26" width="180" height="114" as="geometry" />
        </mxCell>
        <mxCell id="uX3BRisPS_wJf3MowtyH-3" value="" style="line;html=1;strokeWidth=1;align=left;verticalAlign=middle;spacingTop=-1;spacingLeft=3;spacingRight=3;rotatable=0;labelPosition=right;points=[];portConstraint=eastwest;" vertex="1" parent="uX3BRisPS_wJf3MowtyH-1">
          <mxGeometry y="140" width="180" height="10" as="geometry" />
        </mxCell>
        <mxCell id="uX3BRisPS_wJf3MowtyH-4" value="Buscar_Soluciones();&#xa;" style="text;align=left;verticalAlign=top;spacingLeft=4;spacingRight=4;overflow=hidden;rotatable=0;points=[[0,0.5],[1,0.5]];portConstraint=eastwest;" vertex="1" parent="uX3BRisPS_wJf3MowtyH-1">
          <mxGeometry y="150" width="180" height="20" as="geometry" />
        </mxCell>
        <mxCell id="uX3BRisPS_wJf3MowtyH-5" value="SOLUCION" style="swimlane;fontStyle=0;align=center;verticalAlign=top;childLayout=stackLayout;horizontal=1;startSize=30;horizontalStack=0;resizeParent=1;resizeLast=0;collapsible=1;marginBottom=0;rounded=0;shadow=0;strokeWidth=1;" vertex="1" parent="1">
          <mxGeometry x="190" y="386" width="184" height="190" as="geometry">
            <mxRectangle x="550" y="140" width="160" height="26" as="alternateBounds" />
          </mxGeometry>
        </mxCell>
        <mxCell id="uX3BRisPS_wJf3MowtyH-6" value="Nro_Solucion&#xa;Descripcion_Corta&#xa;Descripcion_Larga&#xa;Error&#xa;Fecha&#xa;Resolutor&#xa;" style="text;align=left;verticalAlign=top;spacingLeft=4;spacingRight=4;overflow=hidden;rotatable=0;points=[[0,0.5],[1,0.5]];portConstraint=eastwest;" vertex="1" parent="uX3BRisPS_wJf3MowtyH-5">
          <mxGeometry y="30" width="184" height="104" as="geometry" />
        </mxCell>
        <mxCell id="uX3BRisPS_wJf3MowtyH-7" value="" style="line;html=1;strokeWidth=1;align=left;verticalAlign=middle;spacingTop=-1;spacingLeft=3;spacingRight=3;rotatable=0;labelPosition=right;points=[];portConstraint=eastwest;" vertex="1" parent="uX3BRisPS_wJf3MowtyH-5">
          <mxGeometry y="134" width="184" height="8" as="geometry" />
        </mxCell>
        <mxCell id="uX3BRisPS_wJf3MowtyH-8" value="List_Soluciones(Error)&#xa;List_Soluciones(tipo_usu,area)" style="text;align=left;verticalAlign=top;spacingLeft=4;spacingRight=4;overflow=hidden;rotatable=0;points=[[0,0.5],[1,0.5]];portConstraint=eastwest;" vertex="1" parent="uX3BRisPS_wJf3MowtyH-5">
          <mxGeometry y="142" width="184" height="48" as="geometry" />
        </mxCell>
        <mxCell id="uX3BRisPS_wJf3MowtyH-9" value="RESOLUTOR" style="swimlane;fontStyle=0;align=center;verticalAlign=top;childLayout=stackLayout;horizontal=1;startSize=26;horizontalStack=0;resizeParent=1;resizeLast=0;collapsible=1;marginBottom=0;rounded=0;shadow=0;strokeWidth=1;" vertex="1" parent="1">
          <mxGeometry x="40" y="505" width="96" height="80" as="geometry">
            <mxRectangle x="550" y="140" width="160" height="26" as="alternateBounds" />
          </mxGeometry>
        </mxCell>
        <mxCell id="uX3BRisPS_wJf3MowtyH-10" value="Tipo_Resolutor" style="text;align=left;verticalAlign=top;spacingLeft=4;spacingRight=4;overflow=hidden;rotatable=0;points=[[0,0.5],[1,0.5]];portConstraint=eastwest;" vertex="1" parent="uX3BRisPS_wJf3MowtyH-9">
          <mxGeometry y="26" width="96" height="26" as="geometry" />
        </mxCell>
        <mxCell id="uX3BRisPS_wJf3MowtyH-11" value="" style="line;html=1;strokeWidth=1;align=left;verticalAlign=middle;spacingTop=-1;spacingLeft=3;spacingRight=3;rotatable=0;labelPosition=right;points=[];portConstraint=eastwest;" vertex="1" parent="uX3BRisPS_wJf3MowtyH-9">
          <mxGeometry y="52" width="96" height="10" as="geometry" />
        </mxCell>
        <mxCell id="uX3BRisPS_wJf3MowtyH-12" value="AREA" style="swimlane;fontStyle=0;align=center;verticalAlign=top;childLayout=stackLayout;horizontal=1;startSize=26;horizontalStack=0;resizeParent=1;resizeLast=0;collapsible=1;marginBottom=0;rounded=0;shadow=0;strokeWidth=1;" vertex="1" parent="1">
          <mxGeometry x="20" y="106" width="90" height="54" as="geometry">
            <mxRectangle x="550" y="140" width="160" height="26" as="alternateBounds" />
          </mxGeometry>
        </mxCell>
        <mxCell id="uX3BRisPS_wJf3MowtyH-13" value="&#xa;" style="text;align=left;verticalAlign=top;spacingLeft=4;spacingRight=4;overflow=hidden;rotatable=0;points=[[0,0.5],[1,0.5]];portConstraint=eastwest;" vertex="1" parent="uX3BRisPS_wJf3MowtyH-12">
          <mxGeometry y="26" width="90" height="14" as="geometry" />
        </mxCell>
        <mxCell id="uX3BRisPS_wJf3MowtyH-14" value="" style="line;html=1;strokeWidth=1;align=left;verticalAlign=middle;spacingTop=-1;spacingLeft=3;spacingRight=3;rotatable=0;labelPosition=right;points=[];portConstraint=eastwest;" vertex="1" parent="uX3BRisPS_wJf3MowtyH-12">
          <mxGeometry y="40" width="90" height="8" as="geometry" />
        </mxCell>
        <mxCell id="uX3BRisPS_wJf3MowtyH-15" value="ERROR" style="swimlane;fontStyle=0;align=center;verticalAlign=top;childLayout=stackLayout;horizontal=1;startSize=26;horizontalStack=0;resizeParent=1;resizeLast=0;collapsible=1;marginBottom=0;rounded=0;shadow=0;strokeWidth=1;" vertex="1" parent="1">
          <mxGeometry x="670" y="499" width="140" height="184" as="geometry">
            <mxRectangle x="130" y="380" width="160" height="26" as="alternateBounds" />
          </mxGeometry>
        </mxCell>
        <mxCell id="uX3BRisPS_wJf3MowtyH-16" value="Nro_Error&#xa;Pantalla&#xa;Aplicacion&#xa;Modulo&#xa;Proceso&#xa;Descripcion_Corta&#xa;Pasos_Reproducir&#xa;" style="text;align=left;verticalAlign=top;spacingLeft=4;spacingRight=4;overflow=hidden;rotatable=0;points=[[0,0.5],[1,0.5]];portConstraint=eastwest;" vertex="1" parent="uX3BRisPS_wJf3MowtyH-15">
          <mxGeometry y="26" width="140" height="114" as="geometry" />
        </mxCell>
        <mxCell id="uX3BRisPS_wJf3MowtyH-17" value="" style="line;html=1;strokeWidth=1;align=left;verticalAlign=middle;spacingTop=-1;spacingLeft=3;spacingRight=3;rotatable=0;labelPosition=right;points=[];portConstraint=eastwest;" vertex="1" parent="uX3BRisPS_wJf3MowtyH-15">
          <mxGeometry y="140" width="140" height="8" as="geometry" />
        </mxCell>
        <mxCell id="uX3BRisPS_wJf3MowtyH-18" value="ESTADOS" style="swimlane;fontStyle=0;align=center;verticalAlign=top;childLayout=stackLayout;horizontal=1;startSize=26;horizontalStack=0;resizeParent=1;resizeLast=0;collapsible=1;marginBottom=0;rounded=0;shadow=0;strokeWidth=1;" vertex="1" parent="1">
          <mxGeometry x="490" y="270" width="120" height="60" as="geometry">
            <mxRectangle x="130" y="380" width="160" height="26" as="alternateBounds" />
          </mxGeometry>
        </mxCell>
        <mxCell id="uX3BRisPS_wJf3MowtyH-19" value="&#xa;" style="text;align=left;verticalAlign=top;spacingLeft=4;spacingRight=4;overflow=hidden;rotatable=0;points=[[0,0.5],[1,0.5]];portConstraint=eastwest;" vertex="1" parent="uX3BRisPS_wJf3MowtyH-18">
          <mxGeometry y="26" width="120" height="14" as="geometry" />
        </mxCell>
        <mxCell id="uX3BRisPS_wJf3MowtyH-20" value="" style="line;html=1;strokeWidth=1;align=left;verticalAlign=middle;spacingTop=-1;spacingLeft=3;spacingRight=3;rotatable=0;labelPosition=right;points=[];portConstraint=eastwest;" vertex="1" parent="uX3BRisPS_wJf3MowtyH-18">
          <mxGeometry y="40" width="120" height="8" as="geometry" />
        </mxCell>
        <mxCell id="uX3BRisPS_wJf3MowtyH-21" value="PRIORIDAD" style="swimlane;fontStyle=0;align=center;verticalAlign=top;childLayout=stackLayout;horizontal=1;startSize=26;horizontalStack=0;resizeParent=1;resizeLast=0;collapsible=1;marginBottom=0;rounded=0;shadow=0;strokeWidth=1;" vertex="1" parent="1">
          <mxGeometry x="360" y="270" width="120" height="60" as="geometry">
            <mxRectangle x="130" y="380" width="160" height="26" as="alternateBounds" />
          </mxGeometry>
        </mxCell>
        <mxCell id="uX3BRisPS_wJf3MowtyH-22" value="&#xa;" style="text;align=left;verticalAlign=top;spacingLeft=4;spacingRight=4;overflow=hidden;rotatable=0;points=[[0,0.5],[1,0.5]];portConstraint=eastwest;" vertex="1" parent="uX3BRisPS_wJf3MowtyH-21">
          <mxGeometry y="26" width="120" height="24" as="geometry" />
        </mxCell>
        <mxCell id="uX3BRisPS_wJf3MowtyH-23" value="" style="line;html=1;strokeWidth=1;align=left;verticalAlign=middle;spacingTop=-1;spacingLeft=3;spacingRight=3;rotatable=0;labelPosition=right;points=[];portConstraint=eastwest;" vertex="1" parent="uX3BRisPS_wJf3MowtyH-21">
          <mxGeometry y="50" width="120" height="8" as="geometry" />
        </mxCell>
        <mxCell id="uX3BRisPS_wJf3MowtyH-24" value="USUARIO" style="swimlane;fontStyle=0;align=center;verticalAlign=top;childLayout=stackLayout;horizontal=1;startSize=26;horizontalStack=0;resizeParent=1;resizeLast=0;collapsible=1;marginBottom=0;rounded=0;shadow=0;strokeWidth=1;" vertex="1" parent="1">
          <mxGeometry x="20" y="220" width="150" height="230" as="geometry">
            <mxRectangle x="550" y="140" width="160" height="26" as="alternateBounds" />
          </mxGeometry>
        </mxCell>
        <mxCell id="uX3BRisPS_wJf3MowtyH-25" value="Usuario&#xa;Nombre&#xa;Clave&#xa;Activo&#xa;Mail&#xa;" style="text;align=left;verticalAlign=top;spacingLeft=4;spacingRight=4;overflow=hidden;rotatable=0;points=[[0,0.5],[1,0.5]];portConstraint=eastwest;" vertex="1" parent="uX3BRisPS_wJf3MowtyH-24">
          <mxGeometry y="26" width="150" height="84" as="geometry" />
        </mxCell>
        <mxCell id="uX3BRisPS_wJf3MowtyH-26" value="" style="line;html=1;strokeWidth=1;align=left;verticalAlign=middle;spacingTop=-1;spacingLeft=3;spacingRight=3;rotatable=0;labelPosition=right;points=[];portConstraint=eastwest;" vertex="1" parent="uX3BRisPS_wJf3MowtyH-24">
          <mxGeometry y="110" width="150" height="10" as="geometry" />
        </mxCell>
        <mxCell id="uX3BRisPS_wJf3MowtyH-27" value="Solicitar_Datos_loguin()&#xa;Validar_Datos();&#xa;Validar_Usuario();&#xa;Obtener_Tipo_Usuario&#xa;Obtener_Area_Usuario();&#xa;Crear(.);&#xa;Modificar(.); &#xa;" style="text;align=left;verticalAlign=top;spacingLeft=4;spacingRight=4;overflow=hidden;rotatable=0;points=[[0,0.5],[1,0.5]];portConstraint=eastwest;rounded=0;shadow=0;html=0;" vertex="1" parent="uX3BRisPS_wJf3MowtyH-24">
          <mxGeometry y="120" width="150" height="100" as="geometry" />
        </mxCell>
        <mxCell id="uX3BRisPS_wJf3MowtyH-29" value="1" style="html=1;verticalAlign=bottom;endArrow=block;curved=0;rounded=0;" edge="1" parent="1" source="uX3BRisPS_wJf3MowtyH-1" target="uX3BRisPS_wJf3MowtyH-21">
          <mxGeometry x="0.3683" y="-5" width="80" relative="1" as="geometry">
            <mxPoint x="399" y="549" as="sourcePoint" />
            <mxPoint x="479" y="549" as="targetPoint" />
            <mxPoint as="offset" />
          </mxGeometry>
        </mxCell>
        <mxCell id="uX3BRisPS_wJf3MowtyH-30" value="EMPLEADO" style="swimlane;fontStyle=0;align=center;verticalAlign=top;childLayout=stackLayout;horizontal=1;startSize=26;horizontalStack=0;resizeParent=1;resizeLast=0;collapsible=1;marginBottom=0;rounded=0;shadow=0;strokeWidth=1;" vertex="1" parent="1">
          <mxGeometry x="180" y="60" width="111" height="140" as="geometry">
            <mxRectangle x="550" y="140" width="160" height="26" as="alternateBounds" />
          </mxGeometry>
        </mxCell>
        <mxCell id="uX3BRisPS_wJf3MowtyH-31" value="Legajo&#xa;Nombre&#xa;Apellido&#xa;Fecha_ingreso&#xa;Fecha_Egreso&#xa;Area" style="text;align=left;verticalAlign=top;spacingLeft=4;spacingRight=4;overflow=hidden;rotatable=0;points=[[0,0.5],[1,0.5]];portConstraint=eastwest;" vertex="1" parent="uX3BRisPS_wJf3MowtyH-30">
          <mxGeometry y="26" width="111" height="94" as="geometry" />
        </mxCell>
        <mxCell id="uX3BRisPS_wJf3MowtyH-32" value="" style="line;html=1;strokeWidth=1;align=left;verticalAlign=middle;spacingTop=-1;spacingLeft=3;spacingRight=3;rotatable=0;labelPosition=right;points=[];portConstraint=eastwest;" vertex="1" parent="uX3BRisPS_wJf3MowtyH-30">
          <mxGeometry y="120" width="111" height="8" as="geometry" />
        </mxCell>
        <mxCell id="uX3BRisPS_wJf3MowtyH-33" value="" style="endArrow=block;endSize=16;endFill=0;html=1;rounded=0;" edge="1" parent="1" source="uX3BRisPS_wJf3MowtyH-24" target="uX3BRisPS_wJf3MowtyH-30">
          <mxGeometry width="160" relative="1" as="geometry">
            <mxPoint x="359" y="529" as="sourcePoint" />
            <mxPoint x="519" y="529" as="targetPoint" />
          </mxGeometry>
        </mxCell>
        <mxCell id="uX3BRisPS_wJf3MowtyH-34" value="1" style="html=1;verticalAlign=bottom;endArrow=block;curved=0;rounded=0;" edge="1" parent="1" source="uX3BRisPS_wJf3MowtyH-31" target="uX3BRisPS_wJf3MowtyH-12">
          <mxGeometry width="80" relative="1" as="geometry">
            <mxPoint x="709" y="405" as="sourcePoint" />
            <mxPoint x="779" y="375" as="targetPoint" />
          </mxGeometry>
        </mxCell>
        <mxCell id="uX3BRisPS_wJf3MowtyH-35" value="" style="endArrow=block;endSize=16;endFill=0;html=1;rounded=0;" edge="1" parent="1" source="uX3BRisPS_wJf3MowtyH-15" target="uX3BRisPS_wJf3MowtyH-1">
          <mxGeometry width="160" relative="1" as="geometry">
            <mxPoint x="629" y="609" as="sourcePoint" />
            <mxPoint x="443" y="469" as="targetPoint" />
          </mxGeometry>
        </mxCell>
        <mxCell id="uX3BRisPS_wJf3MowtyH-36" value="1" style="html=1;verticalAlign=bottom;endArrow=block;curved=0;rounded=0;exitX=-0.017;exitY=0.731;exitDx=0;exitDy=0;exitPerimeter=0;" edge="1" parent="1" source="uX3BRisPS_wJf3MowtyH-6" target="uX3BRisPS_wJf3MowtyH-9">
          <mxGeometry x="0.6578" y="13" width="80" relative="1" as="geometry">
            <mxPoint x="699" y="437" as="sourcePoint" />
            <mxPoint x="779" y="458" as="targetPoint" />
            <mxPoint as="offset" />
          </mxGeometry>
        </mxCell>
        <mxCell id="uX3BRisPS_wJf3MowtyH-38" value="APLICACION" style="swimlane;fontStyle=0;align=center;verticalAlign=top;childLayout=stackLayout;horizontal=1;startSize=26;horizontalStack=0;resizeParent=1;resizeLast=0;collapsible=1;marginBottom=0;rounded=0;shadow=0;strokeWidth=1;" vertex="1" parent="1">
          <mxGeometry x="700" y="708" width="120" height="60" as="geometry">
            <mxRectangle x="130" y="380" width="160" height="26" as="alternateBounds" />
          </mxGeometry>
        </mxCell>
        <mxCell id="uX3BRisPS_wJf3MowtyH-39" value="" style="line;html=1;strokeWidth=1;align=left;verticalAlign=middle;spacingTop=-1;spacingLeft=3;spacingRight=3;rotatable=0;labelPosition=right;points=[];portConstraint=eastwest;" vertex="1" parent="uX3BRisPS_wJf3MowtyH-38">
          <mxGeometry y="26" width="120" height="8" as="geometry" />
        </mxCell>
        <mxCell id="uX3BRisPS_wJf3MowtyH-40" value="MODULO" style="swimlane;fontStyle=0;align=center;verticalAlign=top;childLayout=stackLayout;horizontal=1;startSize=26;horizontalStack=0;resizeParent=1;resizeLast=0;collapsible=1;marginBottom=0;rounded=0;shadow=0;strokeWidth=1;" vertex="1" parent="1">
          <mxGeometry x="837" y="649" width="120" height="60" as="geometry">
            <mxRectangle x="130" y="380" width="160" height="26" as="alternateBounds" />
          </mxGeometry>
        </mxCell>
        <mxCell id="uX3BRisPS_wJf3MowtyH-41" value="" style="line;html=1;strokeWidth=1;align=left;verticalAlign=middle;spacingTop=-1;spacingLeft=3;spacingRight=3;rotatable=0;labelPosition=right;points=[];portConstraint=eastwest;" vertex="1" parent="uX3BRisPS_wJf3MowtyH-40">
          <mxGeometry y="26" width="120" height="8" as="geometry" />
        </mxCell>
        <mxCell id="uX3BRisPS_wJf3MowtyH-42" value="PROCESO" style="swimlane;fontStyle=0;align=center;verticalAlign=top;childLayout=stackLayout;horizontal=1;startSize=26;horizontalStack=0;resizeParent=1;resizeLast=0;collapsible=1;marginBottom=0;rounded=0;shadow=0;strokeWidth=1;" vertex="1" parent="1">
          <mxGeometry x="837" y="559" width="120" height="60" as="geometry">
            <mxRectangle x="130" y="380" width="160" height="26" as="alternateBounds" />
          </mxGeometry>
        </mxCell>
        <mxCell id="uX3BRisPS_wJf3MowtyH-43" value="" style="line;html=1;strokeWidth=1;align=left;verticalAlign=middle;spacingTop=-1;spacingLeft=3;spacingRight=3;rotatable=0;labelPosition=right;points=[];portConstraint=eastwest;" vertex="1" parent="uX3BRisPS_wJf3MowtyH-42">
          <mxGeometry y="26" width="120" height="8" as="geometry" />
        </mxCell>
        <mxCell id="uX3BRisPS_wJf3MowtyH-44" value="PANTALLA" style="swimlane;fontStyle=0;align=center;verticalAlign=top;childLayout=stackLayout;horizontal=1;startSize=26;horizontalStack=0;resizeParent=1;resizeLast=0;collapsible=1;marginBottom=0;rounded=0;shadow=0;strokeWidth=1;" vertex="1" parent="1">
          <mxGeometry x="837" y="464" width="120" height="60" as="geometry">
            <mxRectangle x="130" y="380" width="160" height="26" as="alternateBounds" />
          </mxGeometry>
        </mxCell>
        <mxCell id="uX3BRisPS_wJf3MowtyH-45" value="" style="line;html=1;strokeWidth=1;align=left;verticalAlign=middle;spacingTop=-1;spacingLeft=3;spacingRight=3;rotatable=0;labelPosition=right;points=[];portConstraint=eastwest;" vertex="1" parent="uX3BRisPS_wJf3MowtyH-44">
          <mxGeometry y="26" width="120" height="8" as="geometry" />
        </mxCell>
        <mxCell id="uX3BRisPS_wJf3MowtyH-46" value="" style="endArrow=classic;html=1;rounded=0;" edge="1" parent="1" source="uX3BRisPS_wJf3MowtyH-15" target="uX3BRisPS_wJf3MowtyH-44">
          <mxGeometry width="50" height="50" relative="1" as="geometry">
            <mxPoint x="750" y="599" as="sourcePoint" />
            <mxPoint x="800" y="549" as="targetPoint" />
          </mxGeometry>
        </mxCell>
        <mxCell id="uX3BRisPS_wJf3MowtyH-47" value="1" style="edgeLabel;html=1;align=center;verticalAlign=middle;resizable=0;points=[];" vertex="1" connectable="0" parent="uX3BRisPS_wJf3MowtyH-46">
          <mxGeometry x="0.1822" y="-1" relative="1" as="geometry">
            <mxPoint y="-1" as="offset" />
          </mxGeometry>
        </mxCell>
        <mxCell id="uX3BRisPS_wJf3MowtyH-48" value="" style="endArrow=classic;html=1;rounded=0;" edge="1" parent="1" source="uX3BRisPS_wJf3MowtyH-15" target="uX3BRisPS_wJf3MowtyH-42">
          <mxGeometry x="0.0526" y="30" width="50" height="50" relative="1" as="geometry">
            <mxPoint x="800" y="590" as="sourcePoint" />
            <mxPoint x="840" y="578" as="targetPoint" />
            <mxPoint as="offset" />
          </mxGeometry>
        </mxCell>
        <mxCell id="uX3BRisPS_wJf3MowtyH-49" value="1" style="edgeLabel;html=1;align=center;verticalAlign=middle;resizable=0;points=[];" vertex="1" connectable="0" parent="uX3BRisPS_wJf3MowtyH-48">
          <mxGeometry x="0.1946" y="-6" relative="1" as="geometry">
            <mxPoint x="5" y="3" as="offset" />
          </mxGeometry>
        </mxCell>
        <mxCell id="uX3BRisPS_wJf3MowtyH-50" value="" style="endArrow=classic;html=1;rounded=0;" edge="1" parent="1" source="uX3BRisPS_wJf3MowtyH-15" target="uX3BRisPS_wJf3MowtyH-40">
          <mxGeometry width="50" height="50" relative="1" as="geometry">
            <mxPoint x="810" y="600" as="sourcePoint" />
            <mxPoint x="850" y="588" as="targetPoint" />
          </mxGeometry>
        </mxCell>
        <mxCell id="uX3BRisPS_wJf3MowtyH-51" value="1" style="edgeLabel;html=1;align=center;verticalAlign=middle;resizable=0;points=[];" vertex="1" connectable="0" parent="uX3BRisPS_wJf3MowtyH-50">
          <mxGeometry x="-0.1162" y="-5" relative="1" as="geometry">
            <mxPoint x="17" y="9" as="offset" />
          </mxGeometry>
        </mxCell>
        <mxCell id="uX3BRisPS_wJf3MowtyH-52" value="1" style="endArrow=classic;html=1;rounded=0;" edge="1" parent="1" source="uX3BRisPS_wJf3MowtyH-15" target="uX3BRisPS_wJf3MowtyH-38">
          <mxGeometry x="0.7067" y="11" width="50" height="50" relative="1" as="geometry">
            <mxPoint x="710" y="611" as="sourcePoint" />
            <mxPoint x="750" y="599" as="targetPoint" />
            <mxPoint as="offset" />
          </mxGeometry>
        </mxCell>
        <mxCell id="uX3BRisPS_wJf3MowtyH-53" value="" style="endArrow=block;endSize=16;endFill=0;html=1;rounded=0;" edge="1" parent="1" source="uX3BRisPS_wJf3MowtyH-59" target="uX3BRisPS_wJf3MowtyH-5">
          <mxGeometry width="160" relative="1" as="geometry">
            <mxPoint x="330.5" y="729" as="sourcePoint" />
            <mxPoint x="354" y="684" as="targetPoint" />
            <Array as="points" />
          </mxGeometry>
        </mxCell>
        <mxCell id="uX3BRisPS_wJf3MowtyH-54" value="" style="endArrow=block;endSize=16;endFill=0;html=1;rounded=0;" edge="1" parent="1" source="uX3BRisPS_wJf3MowtyH-55" target="uX3BRisPS_wJf3MowtyH-8">
          <mxGeometry width="160" relative="1" as="geometry">
            <mxPoint x="398.6078431372548" y="729" as="sourcePoint" />
            <mxPoint x="364" y="694" as="targetPoint" />
            <Array as="points" />
          </mxGeometry>
        </mxCell>
        <mxCell id="uX3BRisPS_wJf3MowtyH-55" value="TIPO_TECNICA" style="swimlane;fontStyle=0;align=center;verticalAlign=top;childLayout=stackLayout;horizontal=1;startSize=26;horizontalStack=0;resizeParent=1;resizeLast=0;collapsible=1;marginBottom=0;rounded=0;shadow=0;strokeWidth=1;" vertex="1" parent="1">
          <mxGeometry x="291" y="623" width="180" height="134" as="geometry">
            <mxRectangle x="550" y="140" width="160" height="26" as="alternateBounds" />
          </mxGeometry>
        </mxCell>
        <mxCell id="uX3BRisPS_wJf3MowtyH-56" value="Script&#xa;Herramienta" style="text;align=left;verticalAlign=top;spacingLeft=4;spacingRight=4;overflow=hidden;rotatable=0;points=[[0,0.5],[1,0.5]];portConstraint=eastwest;" vertex="1" parent="uX3BRisPS_wJf3MowtyH-55">
          <mxGeometry y="26" width="180" height="44" as="geometry" />
        </mxCell>
        <mxCell id="uX3BRisPS_wJf3MowtyH-57" value="" style="line;html=1;strokeWidth=1;align=left;verticalAlign=middle;spacingTop=-1;spacingLeft=3;spacingRight=3;rotatable=0;labelPosition=right;points=[];portConstraint=eastwest;" vertex="1" parent="uX3BRisPS_wJf3MowtyH-55">
          <mxGeometry y="70" width="180" height="10" as="geometry" />
        </mxCell>
        <mxCell id="uX3BRisPS_wJf3MowtyH-58" value="List_Soluciones(Error)&#xa;List_Soluciones(tipo_usu,area)&#xa;List_Sol(Error)" style="text;align=left;verticalAlign=top;spacingLeft=4;spacingRight=4;overflow=hidden;rotatable=0;points=[[0,0.5],[1,0.5]];portConstraint=eastwest;" vertex="1" parent="uX3BRisPS_wJf3MowtyH-55">
          <mxGeometry y="80" width="180" height="50" as="geometry" />
        </mxCell>
        <mxCell id="uX3BRisPS_wJf3MowtyH-59" value="TIPO_USUARIO" style="swimlane;fontStyle=0;align=center;verticalAlign=top;childLayout=stackLayout;horizontal=1;startSize=26;horizontalStack=0;resizeParent=1;resizeLast=0;collapsible=1;marginBottom=0;rounded=0;shadow=0;strokeWidth=1;" vertex="1" parent="1">
          <mxGeometry x="90" y="612" width="180" height="156" as="geometry">
            <mxRectangle x="550" y="140" width="160" height="26" as="alternateBounds" />
          </mxGeometry>
        </mxCell>
        <mxCell id="uX3BRisPS_wJf3MowtyH-60" value="Path&#xa;Permisos&#xa;Prerequisitos" style="text;align=left;verticalAlign=top;spacingLeft=4;spacingRight=4;overflow=hidden;rotatable=0;points=[[0,0.5],[1,0.5]];portConstraint=eastwest;" vertex="1" parent="uX3BRisPS_wJf3MowtyH-59">
          <mxGeometry y="26" width="180" height="54" as="geometry" />
        </mxCell>
        <mxCell id="uX3BRisPS_wJf3MowtyH-61" value="" style="line;html=1;strokeWidth=1;align=left;verticalAlign=middle;spacingTop=-1;spacingLeft=3;spacingRight=3;rotatable=0;labelPosition=right;points=[];portConstraint=eastwest;" vertex="1" parent="uX3BRisPS_wJf3MowtyH-59">
          <mxGeometry y="80" width="180" height="10" as="geometry" />
        </mxCell>
        <mxCell id="uX3BRisPS_wJf3MowtyH-62" value="List_Soluciones(Error)&#xa;List_Soluciones(tipo_usu,area)&#xa;List_Sol(Error)" style="text;align=left;verticalAlign=top;spacingLeft=4;spacingRight=4;overflow=hidden;rotatable=0;points=[[0,0.5],[1,0.5]];portConstraint=eastwest;" vertex="1" parent="uX3BRisPS_wJf3MowtyH-59">
          <mxGeometry y="90" width="180" height="60" as="geometry" />
        </mxCell>
        <mxCell id="uX3BRisPS_wJf3MowtyH-63" value="1" style="html=1;verticalAlign=bottom;endArrow=block;curved=0;rounded=0;exitX=0.006;exitY=0.702;exitDx=0;exitDy=0;exitPerimeter=0;" edge="1" parent="1" source="uX3BRisPS_wJf3MowtyH-2">
          <mxGeometry x="0.6468" y="-10" width="80" relative="1" as="geometry">
            <mxPoint x="410" y="436.08727272727276" as="sourcePoint" />
            <mxPoint x="370" y="466" as="targetPoint" />
            <mxPoint as="offset" />
          </mxGeometry>
        </mxCell>
        <mxCell id="uX3BRisPS_wJf3MowtyH-64" value="" style="endArrow=open;html=1;endSize=12;startArrow=diamondThin;startSize=14;startFill=1;edgeStyle=orthogonalEdgeStyle;align=left;verticalAlign=bottom;rounded=0;" edge="1" parent="1" source="uX3BRisPS_wJf3MowtyH-16" target="uX3BRisPS_wJf3MowtyH-5">
          <mxGeometry x="-1" y="3" relative="1" as="geometry">
            <mxPoint x="590" y="591" as="sourcePoint" />
            <mxPoint x="650" y="559" as="targetPoint" />
            <Array as="points">
              <mxPoint x="580" y="560" />
              <mxPoint x="580" y="560" />
            </Array>
          </mxGeometry>
        </mxCell>
        <mxCell id="uX3BRisPS_wJf3MowtyH-65" value="1..n" style="edgeLabel;html=1;align=center;verticalAlign=middle;resizable=0;points=[];" vertex="1" connectable="0" parent="uX3BRisPS_wJf3MowtyH-64">
          <mxGeometry x="0.6899" y="-1" relative="1" as="geometry">
            <mxPoint x="-4" y="-11" as="offset" />
          </mxGeometry>
        </mxCell>
        <mxCell id="uX3BRisPS_wJf3MowtyH-66" value="CONECTAR" style="swimlane;fontStyle=2;align=center;verticalAlign=top;childLayout=stackLayout;horizontal=1;startSize=26;horizontalStack=0;resizeParent=1;resizeLast=0;collapsible=1;marginBottom=0;rounded=0;shadow=0;strokeWidth=1;" vertex="1" parent="1">
          <mxGeometry x="210" y="230" width="130" height="110" as="geometry">
            <mxRectangle x="230" y="140" width="160" height="26" as="alternateBounds" />
          </mxGeometry>
        </mxCell>
        <mxCell id="uX3BRisPS_wJf3MowtyH-67" value="&#xa;" style="text;align=left;verticalAlign=top;spacingLeft=4;spacingRight=4;overflow=hidden;rotatable=0;points=[[0,0.5],[1,0.5]];portConstraint=eastwest;" vertex="1" parent="uX3BRisPS_wJf3MowtyH-66">
          <mxGeometry y="26" width="130" height="14" as="geometry" />
        </mxCell>
        <mxCell id="uX3BRisPS_wJf3MowtyH-68" value="" style="line;html=1;strokeWidth=1;align=left;verticalAlign=middle;spacingTop=-1;spacingLeft=3;spacingRight=3;rotatable=0;labelPosition=right;points=[];portConstraint=eastwest;" vertex="1" parent="uX3BRisPS_wJf3MowtyH-66">
          <mxGeometry y="40" width="130" height="10" as="geometry" />
        </mxCell>
        <mxCell id="uX3BRisPS_wJf3MowtyH-69" value="Conectar()&#xa;getConnection()&#xa;Desconectar()" style="text;align=left;verticalAlign=top;spacingLeft=4;spacingRight=4;overflow=hidden;rotatable=0;points=[[0,0.5],[1,0.5]];portConstraint=eastwest;" vertex="1" parent="uX3BRisPS_wJf3MowtyH-66">
          <mxGeometry y="50" width="130" height="60" as="geometry" />
        </mxCell>
        <mxCell id="uX3BRisPS_wJf3MowtyH-70" value="CONTROLADOR_INCIDENTE" style="swimlane;fontStyle=2;align=center;verticalAlign=top;childLayout=stackLayout;horizontal=1;startSize=26;horizontalStack=0;resizeParent=1;resizeLast=0;collapsible=1;marginBottom=0;rounded=0;shadow=0;strokeWidth=1;" vertex="1" parent="1">
          <mxGeometry x="640" y="320" width="180" height="130" as="geometry">
            <mxRectangle x="230" y="140" width="160" height="26" as="alternateBounds" />
          </mxGeometry>
        </mxCell>
        <mxCell id="uX3BRisPS_wJf3MowtyH-71" value="Modelo&#xa;Vista" style="text;align=left;verticalAlign=top;spacingLeft=4;spacingRight=4;overflow=hidden;rotatable=0;points=[[0,0.5],[1,0.5]];portConstraint=eastwest;" vertex="1" parent="uX3BRisPS_wJf3MowtyH-70">
          <mxGeometry y="26" width="180" height="34" as="geometry" />
        </mxCell>
        <mxCell id="uX3BRisPS_wJf3MowtyH-72" value="" style="line;html=1;strokeWidth=1;align=left;verticalAlign=middle;spacingTop=-1;spacingLeft=3;spacingRight=3;rotatable=0;labelPosition=right;points=[];portConstraint=eastwest;" vertex="1" parent="uX3BRisPS_wJf3MowtyH-70">
          <mxGeometry y="60" width="180" height="10" as="geometry" />
        </mxCell>
        <mxCell id="uX3BRisPS_wJf3MowtyH-73" value="Insertar()&#xa;Cancelar_Incidente()&#xa;Listar_Incidente()" style="text;align=left;verticalAlign=top;spacingLeft=4;spacingRight=4;overflow=hidden;rotatable=0;points=[[0,0.5],[1,0.5]];portConstraint=eastwest;" vertex="1" parent="uX3BRisPS_wJf3MowtyH-70">
          <mxGeometry y="70" width="180" height="50" as="geometry" />
        </mxCell>
        <mxCell id="uX3BRisPS_wJf3MowtyH-74" value="VISTA_INCIDENTE" style="swimlane;fontStyle=2;align=center;verticalAlign=top;childLayout=stackLayout;horizontal=1;startSize=26;horizontalStack=0;resizeParent=1;resizeLast=0;collapsible=1;marginBottom=0;rounded=0;shadow=0;strokeWidth=1;" vertex="1" parent="1">
          <mxGeometry x="790" y="40" width="180" height="230" as="geometry">
            <mxRectangle x="230" y="140" width="160" height="26" as="alternateBounds" />
          </mxGeometry>
        </mxCell>
        <mxCell id="uX3BRisPS_wJf3MowtyH-75" value="&#xa;" style="text;align=left;verticalAlign=top;spacingLeft=4;spacingRight=4;overflow=hidden;rotatable=0;points=[[0,0.5],[1,0.5]];portConstraint=eastwest;" vertex="1" parent="uX3BRisPS_wJf3MowtyH-74">
          <mxGeometry y="26" width="180" height="24" as="geometry" />
        </mxCell>
        <mxCell id="uX3BRisPS_wJf3MowtyH-76" value="" style="line;html=1;strokeWidth=1;align=left;verticalAlign=middle;spacingTop=-1;spacingLeft=3;spacingRight=3;rotatable=0;labelPosition=right;points=[];portConstraint=eastwest;" vertex="1" parent="uX3BRisPS_wJf3MowtyH-74">
          <mxGeometry y="50" width="180" height="10" as="geometry" />
        </mxCell>
        <mxCell id="uX3BRisPS_wJf3MowtyH-77" value="Solicita_Tipo_Problema()&#xa;Solicita_Prioridad()&#xa;Solicita_Descripcion()&#xa;Solicita_Pasos()&#xa;Selecciona_Confirma()&#xa;Selecciona_Aplicacion()&#xa;Selecciona_Modelo()&#xa;Selecciona_Proceso()&#xa;Selecciona_Pantalla&#xa;Seleccionr_Nro_Inc()&#xa;Listar_Inc()" style="text;align=left;verticalAlign=top;spacingLeft=4;spacingRight=4;overflow=hidden;rotatable=0;points=[[0,0.5],[1,0.5]];portConstraint=eastwest;" vertex="1" parent="uX3BRisPS_wJf3MowtyH-74">
          <mxGeometry y="60" width="180" height="160" as="geometry" />
        </mxCell>
        <mxCell id="uX3BRisPS_wJf3MowtyH-78" value="MODELO_INCIDENTE" style="swimlane;fontStyle=2;align=center;verticalAlign=top;childLayout=stackLayout;horizontal=1;startSize=26;horizontalStack=0;resizeParent=1;resizeLast=0;collapsible=1;marginBottom=0;rounded=0;shadow=0;strokeWidth=1;" vertex="1" parent="1">
          <mxGeometry x="460" y="60" width="180" height="190" as="geometry">
            <mxRectangle x="230" y="140" width="160" height="26" as="alternateBounds" />
          </mxGeometry>
        </mxCell>
        <mxCell id="uX3BRisPS_wJf3MowtyH-79" value="Conexion" style="text;align=left;verticalAlign=top;spacingLeft=4;spacingRight=4;overflow=hidden;rotatable=0;points=[[0,0.5],[1,0.5]];portConstraint=eastwest;" vertex="1" parent="uX3BRisPS_wJf3MowtyH-78">
          <mxGeometry y="26" width="180" height="24" as="geometry" />
        </mxCell>
        <mxCell id="uX3BRisPS_wJf3MowtyH-80" value="" style="line;html=1;strokeWidth=1;align=left;verticalAlign=middle;spacingTop=-1;spacingLeft=3;spacingRight=3;rotatable=0;labelPosition=right;points=[];portConstraint=eastwest;" vertex="1" parent="uX3BRisPS_wJf3MowtyH-78">
          <mxGeometry y="50" width="180" height="10" as="geometry" />
        </mxCell>
        <mxCell id="uX3BRisPS_wJf3MowtyH-81" value="List_Aplicaciones()&#xa;List_Modulos()&#xa;List_Procesos()&#xa;List_Pantallas()&#xa;Insertar_Incidente()&#xa;Buscar_Inc_Usuario_Abiertos()&#xa;Cancelar_Incidente()&#xa;Listar_Incidentes()&#xa;" style="text;align=left;verticalAlign=top;spacingLeft=4;spacingRight=4;overflow=hidden;rotatable=0;points=[[0,0.5],[1,0.5]];portConstraint=eastwest;" vertex="1" parent="uX3BRisPS_wJf3MowtyH-78">
          <mxGeometry y="60" width="180" height="130" as="geometry" />
        </mxCell>
        <mxCell id="uX3BRisPS_wJf3MowtyH-83" value="1" style="html=1;verticalAlign=bottom;endArrow=block;curved=0;rounded=0;entryX=0.467;entryY=0;entryDx=0;entryDy=0;entryPerimeter=0;" edge="1" parent="1" source="uX3BRisPS_wJf3MowtyH-69" target="uX3BRisPS_wJf3MowtyH-5">
          <mxGeometry x="0.6468" y="-10" width="80" relative="1" as="geometry">
            <mxPoint x="441" y="465" as="sourcePoint" />
            <mxPoint x="414" y="488" as="targetPoint" />
            <mxPoint as="offset" />
          </mxGeometry>
        </mxCell>
        <mxCell id="uX3BRisPS_wJf3MowtyH-85" value="1" style="html=1;verticalAlign=bottom;endArrow=block;curved=0;rounded=0;entryX=0.577;entryY=-0.009;entryDx=0;entryDy=0;entryPerimeter=0;" edge="1" parent="1" source="uX3BRisPS_wJf3MowtyH-78" target="uX3BRisPS_wJf3MowtyH-66">
          <mxGeometry x="0.3333" y="-20" width="80" relative="1" as="geometry">
            <mxPoint x="170" y="180" as="sourcePoint" />
            <mxPoint x="537" y="194" as="targetPoint" />
            <mxPoint as="offset" />
          </mxGeometry>
        </mxCell>
        <mxCell id="uX3BRisPS_wJf3MowtyH-87" value="1" style="html=1;verticalAlign=bottom;endArrow=block;curved=0;rounded=0;entryX=0.994;entryY=0.967;entryDx=0;entryDy=0;entryPerimeter=0;" edge="1" parent="1" source="uX3BRisPS_wJf3MowtyH-70" target="uX3BRisPS_wJf3MowtyH-81">
          <mxGeometry x="0.3333" y="-20" width="80" relative="1" as="geometry">
            <mxPoint x="460" y="258" as="sourcePoint" />
            <mxPoint x="520" y="253" as="targetPoint" />
            <mxPoint as="offset" />
          </mxGeometry>
        </mxCell>
        <mxCell id="uX3BRisPS_wJf3MowtyH-89" value="" style="endArrow=block;endSize=16;endFill=0;html=1;rounded=0;exitX=0.25;exitY=0;exitDx=0;exitDy=0;" edge="1" parent="1" source="uX3BRisPS_wJf3MowtyH-9" target="uX3BRisPS_wJf3MowtyH-24">
          <mxGeometry width="160" relative="1" as="geometry">
            <mxPoint x="150" y="590" as="sourcePoint" />
            <mxPoint x="50" y="550" as="targetPoint" />
            <Array as="points" />
          </mxGeometry>
        </mxCell>
        <mxCell id="uX3BRisPS_wJf3MowtyH-93" value="1" style="html=1;verticalAlign=bottom;endArrow=block;curved=0;rounded=0;exitX=0.75;exitY=0;exitDx=0;exitDy=0;" edge="1" parent="1" source="uX3BRisPS_wJf3MowtyH-1" target="uX3BRisPS_wJf3MowtyH-18">
          <mxGeometry x="0.3683" y="-5" width="80" relative="1" as="geometry">
            <mxPoint x="498" y="380" as="sourcePoint" />
            <mxPoint x="481" y="350" as="targetPoint" />
            <mxPoint as="offset" />
          </mxGeometry>
        </mxCell>
        <mxCell id="uX3BRisPS_wJf3MowtyH-94" value="" style="endArrow=classic;html=1;rounded=0;entryX=0.436;entryY=0;entryDx=0;entryDy=0;entryPerimeter=0;" edge="1" parent="1" source="uX3BRisPS_wJf3MowtyH-70" target="uX3BRisPS_wJf3MowtyH-15">
          <mxGeometry width="50" height="50" relative="1" as="geometry">
            <mxPoint x="820" y="558" as="sourcePoint" />
            <mxPoint x="858" y="534" as="targetPoint" />
            <Array as="points">
              <mxPoint x="731" y="460" />
            </Array>
          </mxGeometry>
        </mxCell>
        <mxCell id="uX3BRisPS_wJf3MowtyH-95" value="1" style="edgeLabel;html=1;align=center;verticalAlign=middle;resizable=0;points=[];" vertex="1" connectable="0" parent="uX3BRisPS_wJf3MowtyH-94">
          <mxGeometry x="0.1822" y="-1" relative="1" as="geometry">
            <mxPoint y="-1" as="offset" />
          </mxGeometry>
        </mxCell>
        <mxCell id="uX3BRisPS_wJf3MowtyH-101" value="1" style="html=1;verticalAlign=bottom;endArrow=block;curved=0;rounded=0;" edge="1" parent="1" target="uX3BRisPS_wJf3MowtyH-74">
          <mxGeometry x="0.3333" y="-20" width="80" relative="1" as="geometry">
            <mxPoint x="640" y="154.33580901856766" as="sourcePoint" />
            <mxPoint x="840" y="154" as="targetPoint" />
            <mxPoint as="offset" />
          </mxGeometry>
        </mxCell>
        <mxCell id="uX3BRisPS_wJf3MowtyH-103" value="" style="endArrow=classic;html=1;rounded=0;" edge="1" parent="1" target="uX3BRisPS_wJf3MowtyH-70">
          <mxGeometry width="50" height="50" relative="1" as="geometry">
            <mxPoint x="800" y="270" as="sourcePoint" />
            <mxPoint x="530" y="380" as="targetPoint" />
          </mxGeometry>
        </mxCell>
      </root>
    </mxGraphModel>
  </diagram>
</mxfile>
